<?xml version="1.0" encoding="UTF-8" standalone="no"?><!DOCTYPE svg PUBLIC "-//W3C//DTD SVG 1.1//EN" "http://www.w3.org/Graphics/SVG/1.1/DTD/svg11.dtd"><svg width="100%" height="100%" viewBox="0 0 2500 1667" version="1.1" xmlns="http://www.w3.org/2000/svg" xmlns:xlink="http://www.w3.org/1999/xlink" xml:space="preserve" xmlns:serif="http://www.serif.com/" style="fill-rule:evenodd;clip-rule:evenodd;"><g id="h12"><g id="HVN-Transit-Gateway"><text x="590.054px" y="817.583px" style="font-family:'Gilmer-Bold', 'Gilmer';font-weight:700;font-size:75px;fill:#1d1f25;">HVN <tspan x="771.071px 813.344px 840.092px " y="817.583px 817.583px 817.583px ">Tra</tspan>nsi<tspan x="993.509px " y="817.583px ">t</tspan> Ga<tspan x="1151.05px 1180.12px 1222.85px 1282.44px 1330.19px " y="817.583px 817.583px 817.583px 817.583px 817.583px ">teway</tspan> A<tspan x="1445.09px 1475.96px 1505.03px 1553.38px 1596.48px " y="817.583px 817.583px 817.583px 817.583px 817.583px ">ttach</tspan>men<tspan x="1803.6px " y="817.583px ">t</tspan></text></g><g id="Identity-Validation"><text x="874.868px" y="1484.25px" style="font-family:'Gilmer-Bold', 'Gilmer';font-weight:700;font-size:75px;fill:#1d1f25;">Iden<tspan x="1034.36px " y="1484.25px ">t</tspan>it<tspan x="1115.35px " y="1484.25px ">y</tspan> V<tspan x="1225px " y="1484.25px ">a</tspan>lid<tspan x="1361.09px " y="1484.25px ">a</tspan>tio<tspan x="1505.81px " y="1484.25px ">n</tspan></text></g><g id="HUB"><text x="1079.01px" y="454.167px" style="font-family:'Gilmer-Heavy', 'Gilmer';font-weight:800;font-size:123.392px;fill:#1d1f25;">HU<tspan x="1259.01px " y="454.167px ">B</tspan></text></g><path id="Path-14" d="M2400,993.75l100,50l-100,50l0,-41.667l-2400,0l0,-16.666l2400,-0l0,-41.667Z" style="fill:#4d27aa;fill-rule:nonzero;"/><path id="Path-16" d="M75,1210.42l0,79.166l-79.167,-39.583l79.167,-39.583Zm2412.5,33.333l0,12.5l-41.667,0l0,-12.5l41.667,0Zm-83.333,0l-0,12.5l-41.667,0l0,-12.5l41.667,0Zm-83.334,0l0,12.5l-41.666,0l-0,-12.5l41.666,0Zm-83.333,0l0,12.5l-41.667,0l0,-12.5l41.667,0Zm-83.333,0l-0,12.5l-41.667,0l0,-12.5l41.667,0Zm-83.334,0l0,12.5l-41.666,0l-0,-12.5l41.666,0Zm-83.333,0l0,12.5l-41.667,0l0,-12.5l41.667,0Zm-83.333,0l-0,12.5l-41.667,0l0,-12.5l41.667,0Zm-83.334,0l0,12.5l-41.666,0l-0,-12.5l41.666,0Zm-83.333,0l0,12.5l-41.667,0l0,-12.5l41.667,0Zm-83.333,0l-0,12.5l-41.667,0l0,-12.5l41.667,0Zm-83.334,0l0,12.5l-41.666,0l-0,-12.5l41.666,0Zm-83.333,0l0,12.5l-41.667,0l0,-12.5l41.667,0Zm-83.333,0l-0,12.5l-41.667,0l0,-12.5l41.667,0Zm-83.334,0l0,12.5l-41.666,0l-0,-12.5l41.666,0Zm-83.333,0l0,12.5l-41.667,0l0,-12.5l41.667,0Zm-83.333,0l-0,12.5l-41.667,0l0,-12.5l41.667,0Zm-83.334,0l0,12.5l-41.666,0l-0,-12.5l41.666,0Zm-83.333,0l0,12.5l-41.667,0l0,-12.5l41.667,0Zm-83.333,0l-0,12.5l-41.667,0l0,-12.5l41.667,0Zm-83.334,0l0,12.5l-41.666,0l-0,-12.5l41.666,0Zm-83.333,0l0,12.5l-41.667,0l0,-12.5l41.667,0Zm-83.333,0l-0,12.5l-41.667,0l0,-12.5l41.667,0Zm-83.334,0l0,12.5l-41.666,0l-0,-12.5l41.666,0Zm-83.333,0l0,12.5l-41.667,0l0,-12.5l41.667,0Zm-83.333,0l-0,12.5l-41.667,0l0,-12.5l41.667,0Zm-83.334,0l0,12.5l-41.666,0l-0,-12.5l41.666,0Zm-83.333,0l0,12.5l-41.667,0l0,-12.5l41.667,0Zm-83.333,0l-0,12.5l-41.667,0l0,-12.5l41.667,0Z" style="fill:#02acff;fill-rule:nonzero;"/><g id="Group-4"><circle id="Oval" cx="83.165" cy="874.424" r="76.689" style="fill:#00acff;fill-opacity:0.75;stroke:#00acff;stroke-width:10.28px;"/><g id="_4" serif:id="4"><g transform="matrix(0.999848,0.0174524,-0.0174524,0.999848,15.7028,-0.930171)"><text x="61.145px" y="899.214px" style="font-family:'Gilmer-Heavy', 'Gilmer';font-weight:800;font-size:71.978px;fill:#fff;">4</text></g></g></g></g></svg>