<?xml version="1.0" encoding="UTF-8" standalone="no"?><!DOCTYPE svg PUBLIC "-//W3C//DTD SVG 1.1//EN" "http://www.w3.org/Graphics/SVG/1.1/DTD/svg11.dtd"><svg width="100%" height="100%" viewBox="0 0 2500 1667" version="1.1" xmlns="http://www.w3.org/2000/svg" xmlns:xlink="http://www.w3.org/1999/xlink" xml:space="preserve" xmlns:serif="http://www.serif.com/" style="fill-rule:evenodd;clip-rule:evenodd;"><g id="h2"><rect id="Rectangle" x="0" y="0" width="2500" height="1666.67" style="fill:none;"/><path id="Rectangle1" serif:id="Rectangle" d="M2088.61,364.181c-0,-14.188 -11.519,-25.706 -25.707,-25.706l-1625.67,-0c-14.188,-0 -25.707,11.518 -25.707,25.706l0,990.254c0,14.188 11.519,25.706 25.707,25.706l1625.67,0c14.188,0 25.707,-11.518 25.707,-25.706l-0,-990.254Z" style="fill:#fff;stroke:#343536;stroke-width:11.25px;"/><path id="Path-4" d="M41.667,0l-0,1666.67" style="fill:none;stroke:#343536;stroke-width:12.52px;"/><g id="SECURITY-GROUP"><text x="539.867px" y="468.059px" style="font-family:'Gilmer-Heavy', 'Gilmer';font-weight:800;font-size:71.978px;fill:#1d1f25;">SE<tspan x="632.166px 687.42px " y="468.059px 468.059px ">CU</tspan>RITY<tspan x="907.334px " y="468.059px "> </tspan>GR<tspan x="1032px " y="468.059px ">O</tspan>UP</text></g><path id="Line-2" d="M1666.67,42.13l34.04,66.666l-28.903,-0l0.004,192.179l-10.283,-0l0,-192.179l-28.898,0l34.04,-66.666Z" style="fill:#4d27aa;fill-rule:nonzero;"/><g id="Secrets-payload"><text x="1344.38px" y="149.599px" style="font-family:'Gilmer-Bold', 'Gilmer';font-weight:700;font-size:61.696px;fill:#1d1f25;">Secr<tspan x="1480.04px 1515.8px 1541.02px " y="149.599px 149.599px 149.599px ">ets</tspan></text><text x="1334.48px" y="224.599px" style="font-family:'Gilmer-Bold', 'Gilmer';font-weight:700;font-size:61.696px;fill:#1d1f25;">pa<tspan x="1413.54px " y="224.599px ">y</tspan>load</text></g><path id="Rectangle2" serif:id="Rectangle" d="M1953.19,614.181c0,-14.188 -11.519,-25.706 -25.707,-25.706l-1354.97,-0c-14.188,-0 -25.707,11.518 -25.707,25.706l-0,146.638c-0,14.188 11.519,25.706 25.707,25.706l1354.97,0c14.188,0 25.707,-11.518 25.707,-25.706l0,-146.638Z" style="fill:#fff;stroke:#343536;stroke-width:10.28px;"/><path id="Rectangle3" serif:id="Rectangle" d="M1953.19,822.808c0,-14.188 -11.519,-25.707 -25.707,-25.707l-1354.97,0c-14.188,0 -25.707,11.519 -25.707,25.707l-0,150.804c-0,14.188 11.519,25.707 25.707,25.707l1354.97,-0c14.188,-0 25.707,-11.519 25.707,-25.707l0,-150.804Z" style="fill:#fff;stroke:#343536;stroke-width:10.28px;"/><path id="Rectangle4" serif:id="Rectangle" d="M1953.19,1036.54c0,-14.187 -11.519,-25.706 -25.707,-25.706l-1354.97,-0c-14.188,-0 -25.707,11.519 -25.707,25.706l-0,146.638c-0,14.188 11.519,25.707 25.707,25.707l1354.97,-0c14.188,-0 25.707,-11.519 25.707,-25.707l0,-146.638Z" style="fill:#fff;stroke:#343536;stroke-width:10.28px;"/><g id="TCP"><text x="1177.41px" y="712.692px" style="font-family:'Gilmer-Heavy', 'Gilmer';font-weight:800;font-size:71.978px;fill:#1d1f25;">T<tspan x="1220px 1275.25px " y="712.692px 712.692px ">CP</tspan></text></g><g id="_8200-----8200" serif:id="8200-&lt;—&gt;-8200"><text x="980.729px" y="923.403px" style="font-family:'Gilmer-Heavy', 'Gilmer';font-weight:800;font-size:71.978px;fill:#1d1f25;">82<tspan x="1066.62px " y="923.403px ">0</tspan>0 &lt;—<tspan x="1283.51px " y="923.403px ">&gt;</tspan> 82<tspan x="1426.58px " y="923.403px ">0</tspan>0</text></g><g id="Destination:-172.25."><text x="775.522px" y="1135.02px" style="font-family:'Gilmer-Heavy', 'Gilmer';font-weight:800;font-size:71.978px;fill:#1d1f25;">Des<tspan x="909.184px " y="1135.02px ">t</tspan>inat<tspan x="1080.08px " y="1135.02px ">i</tspan>on: <tspan x="1225.35px " y="1135.02px ">1</tspan>72<tspan x="1340.3px 1361.08px 1403.73px 1446.11px 1459.68px 1491.76px 1533.92px 1551.81px 1596.06px 1634.83px 1676.4px " y="1135.02px 1135.02px 1135.02px 1135.02px 1135.02px 1135.02px 1135.02px 1135.02px 1135.02px 1135.02px 1135.02px ">.25.16.0/20</tspan></text></g><g id="Group-4"><ellipse id="Oval" cx="1920.49" cy="171.552" rx="74.372" ry="74.648" style="fill:#00acff;fill-opacity:0.75;stroke:#00acff;stroke-width:10.28px;"/><g id="_6" serif:id="6"><g transform="matrix(0.999848,0.0174524,-0.0174524,0.999848,3.70724,-33.082)"><text x="1897.26px" y="195.863px" style="font-family:'Gilmer-Heavy', 'Gilmer';font-weight:800;font-size:71.978px;fill:#fff;">6</text></g></g></g><path id="Line-21" serif:id="Line-2" d="M835.417,1415.05l34.04,66.667l-28.903,-0l0,82.404l28.903,0.003l-34.04,66.667l-34.04,-66.667l28.898,-0.003l-0,-82.404l-28.898,-0l34.04,-66.667Z" style="fill:#4d27aa;fill-rule:nonzero;"/><g id="Group-41" serif:id="Group-4"><ellipse id="Oval1" serif:id="Oval" cx="583.116" cy="1522.92" rx="74.243" ry="74.65" style="fill:#00acff;fill-opacity:0.75;stroke:#00acff;stroke-width:10.28px;"/><g id="_2" serif:id="2"><g transform="matrix(0.999848,0.0174524,-0.0174524,0.999848,27.1058,-9.53302)"><text x="559.741px" y="1548.24px" style="font-family:'Gilmer-Heavy', 'Gilmer';font-weight:800;font-size:71.978px;fill:#fff;">2</text></g></g></g><path id="Line-22" serif:id="Line-2" d="M2184.16,841.699l-0.315,28.897l249.058,2.687l0.316,-28.891l66.295,34.758l-67.031,33.317l0.312,-28.9l-249.063,-2.688l-0.308,28.896l-66.295,-34.759l67.031,-33.317Z" style="fill:#343536;fill-rule:nonzero;"/><g id="Identity-validation"><text x="2175.12px" y="566.667px" style="font-family:'Gilmer-Bold', 'Gilmer';font-weight:700;font-size:61.696px;fill:#1d1f25;">Identi<tspan x="2348.01px 2372.98px " y="566.667px 566.667px ">ty</tspan></text><text x="2140.39px" y="641.667px" style="font-family:'Gilmer-Bold', 'Gilmer';font-weight:700;font-size:61.696px;fill:#1d1f25;">v<tspan x="2174.8px " y="641.667px ">a</tspan>lidat<tspan x="2351.94px " y="641.667px ">i</tspan>on</text></g></g></svg>