<?xml version="1.0" encoding="UTF-8" standalone="no"?><!DOCTYPE svg PUBLIC "-//W3C//DTD SVG 1.1//EN" "http://www.w3.org/Graphics/SVG/1.1/DTD/svg11.dtd"><svg width="100%" height="100%" viewBox="0 0 2500 1667" version="1.1" xmlns="http://www.w3.org/2000/svg" xmlns:xlink="http://www.w3.org/1999/xlink" xml:space="preserve" xmlns:serif="http://www.serif.com/" style="fill-rule:evenodd;clip-rule:evenodd;"><g id="h3"><rect id="Rectangle" x="0" y="0" width="2500" height="1666.67" style="fill:none;"/><path id="Rectangle1" serif:id="Rectangle" d="M2078.19,72.515c0,-14.188 -11.519,-25.707 -25.707,-25.707l-1604.97,-0c-14.188,-0 -25.707,11.519 -25.707,25.707l-0,784.137c-0,14.188 11.519,25.707 25.707,25.707l1604.97,-0c14.188,-0 25.707,-11.519 25.707,-25.707l0,-784.137Z" style="fill:#fff;stroke:#343536;stroke-width:10.28px;"/><g id="Router-Table"><path id="Rectangle2" serif:id="Rectangle" d="M1994.86,322.515c-0,-14.188 -11.519,-25.707 -25.707,-25.707l-1021.64,-0c-14.188,-0 -25.707,11.519 -25.707,25.707l-0,446.637c-0,14.188 11.519,25.707 25.707,25.707l1021.64,-0c14.188,-0 25.707,-11.519 25.707,-25.707l-0,-446.637Z" style="fill:#fff;stroke:#343536;stroke-width:10.28px;"/><g id="Destination"><text x="985.7px" y="400px" style="font-family:'Gilmer-Heavy', 'Gilmer';font-weight:800;font-size:71.978px;fill:#1d1f25;">Des<tspan x="1119.36px " y="400px ">t</tspan>inat<tspan x="1290.26px " y="400px ">i</tspan>on</text></g><g id="_172.25.16.0-20" serif:id="172.25.16.0/20"><text x="945.497px" y="745.833px" style="font-family:'Gilmer-Heavy', 'Gilmer';font-weight:800;font-size:71.978px;fill:#1d1f25;">172<tspan x="1060.44px 1081.22px 1123.88px 1166.25px 1179.83px 1211.91px 1254.06px 1271.96px 1316.2px 1354.97px 1396.55px " y="745.833px 745.833px 745.833px 745.833px 745.833px 745.833px 745.833px 745.833px 745.833px 745.833px 745.833px ">.25.16.0/20</tspan></text></g><g id="_10.0.1.0-24" serif:id="10.0.1.0/24"><text x="1005.32px" y="570.833px" style="font-family:'Gilmer-Heavy', 'Gilmer';font-weight:800;font-size:71.978px;fill:#1d1f25;">10<tspan x="1083.07px 1100.97px 1146.65px 1160.23px 1192.31px 1210.21px 1254.45px 1293.22px 1334.44px " y="570.833px 570.833px 570.833px 570.833px 570.833px 570.833px 570.833px 570.833px 570.833px ">.0.1.0/24</tspan></text></g><g id="local"><text x="1635.04px" y="570.833px" style="font-family:'Gilmer-Heavy', 'Gilmer';font-weight:800;font-size:71.978px;fill:#1d1f25;">local</text></g><g id="HCP-HVN"><text x="1555.81px" y="745.833px" style="font-family:'Gilmer-Heavy', 'Gilmer';font-weight:800;font-size:71.978px;fill:#1d1f25;">HC<tspan x="1663.44px " y="745.833px ">P</tspan>-HVN</text></g><g id="Target"><text x="1614.51px" y="400px" style="font-family:'Gilmer-Heavy', 'Gilmer';font-weight:800;font-size:71.978px;fill:#1d1f25;">T<tspan x="1653.49px 1699.89px 1726.86px 1772.9px 1814.77px " y="400px 400px 400px 400px 400px ">arget</tspan></text></g><path id="Line-4" d="M1460.42,302.101l-0,491.631" style="fill:none;stroke:#343536;stroke-width:10.28px;stroke-linecap:square;"/><path id="Line-41" serif:id="Line-4" d="M922.524,464.583l1071.62,0" style="fill:none;stroke:#343536;stroke-width:10.28px;stroke-linecap:square;"/><path id="Line-42" serif:id="Line-4" d="M922.524,635.417l1071.62,-0" style="fill:none;stroke:#343536;stroke-width:10.28px;stroke-linecap:square;"/></g><g id="Icon-Resource-Networking-and-Content-Delivery-Res_Amazon-VPC_Router_48" serif:id="Icon-Resource/Networking-and-Content-Delivery/Res_Amazon-VPC_Router_48"><path id="AWS-Amazon-VPC_Router_Resource-Icon_light-bg" d="M834.595,513.021l0,15.625l-105.601,-0l20.609,20.609l-11.047,11.047l-33.945,-33.945c-3.047,-3.055 -3.047,-7.992 -0,-11.047l33.945,-33.945l11.047,11.046l-20.609,20.61l105.601,-0Zm-164.203,13.336l-33.937,33.945l-11.047,-11.047l20.601,-20.609l-105.593,-0l-0,-15.625l105.593,-0l-20.601,-20.61l11.047,-11.046l33.937,33.945c3.055,3.055 3.055,7.992 0,11.047Zm45.531,90.789l11.047,11.047l-33.945,33.945c-1.523,1.523 -3.523,2.289 -5.523,2.289c-2,0 -4,-0.766 -5.524,-2.289l-33.945,-33.945l11.047,-11.047l20.609,20.609l0,-231.57l-20.195,23.562l-11.875,-10.164l33.945,-39.601c2.977,-3.469 8.899,-3.469 11.875,-0l33.938,39.601l-11.868,10.164l-20.195,-23.562l0,231.57l20.609,-20.609Zm-28.421,59.937c-86.157,0 -156.25,-70.093 -156.25,-156.25c-0,-86.156 70.093,-156.25 156.25,-156.25c86.156,0 156.25,70.094 156.25,156.25c-0,86.157 -70.094,156.25 -156.25,156.25Zm-0,-328.125c-94.774,0 -171.875,77.102 -171.875,171.875c-0,94.774 77.101,171.875 171.875,171.875c94.773,0 171.875,-77.101 171.875,-171.875c-0,-94.773 -77.102,-171.875 -171.875,-171.875Z" style="fill:#4d27aa;"/></g><g id="Transit-Gateway-Atta"><text x="1749.08px" y="1401.29px" style="font-family:'Gilmer-Bold', 'Gilmer';font-weight:700;font-size:61.696px;fill:#1d1f25;">T<tspan x="1783.85px 1805.86px " y="1401.29px 1401.29px ">ra</tspan>nsit <tspan x="1972.64px " y="1401.29px ">G</tspan>at<tspan x="2085.61px 2120.76px 2169.79px 2209.07px " y="1401.29px 1401.29px 1401.29px 1401.29px ">eway</tspan></text><text x="1815.03px" y="1476.29px" style="font-family:'Gilmer-Bold', 'Gilmer';font-weight:700;font-size:61.696px;fill:#1d1f25;">A<tspan x="1858.32px 1883.72px 1907.64px 1947.41px 1982.87px " y="1476.29px 1476.29px 1476.29px 1476.29px 1476.29px ">ttach</tspan>ment</text></g><g id="Group-4"><ellipse id="Oval" cx="1918.05" cy="1085.65" rx="76.703" ry="75.873" style="fill:#00acff;fill-opacity:0.75;stroke:#00acff;stroke-width:10.28px;"/><g id="_3" serif:id="3"><g transform="matrix(0.999848,0.0174524,-0.0174524,0.999848,19.6601,-32.9033)"><text x="1895px" y="1109.96px" style="font-family:'Gilmer-Heavy', 'Gilmer';font-weight:800;font-size:71.978px;fill:#fff;">3</text></g></g></g><g id="SPOKE"><text x="158.665px" y="1123.27px" style="font-family:'Gilmer-Heavy', 'Gilmer';font-weight:800;font-size:123.392px;fill:#1d1f25;">SP<tspan x="323.123px 422.751px 510.903px " y="1123.27px 1123.27px 1123.27px ">OKE</tspan></text></g><g id="TRANSIT-GATEWAY"><text x="541.667px" y="165.659px" style="font-family:'Gilmer-Heavy', 'Gilmer';font-weight:800;font-size:71.978px;fill:#1d1f25;">VPC R<tspan x="764.531px " y="165.659px ">O</tspan>UTER</text></g><path id="Path-5" d="M41.667,0l-0,1166.67c-0,46.023 37.309,83.333 83.333,83.333l2375,0" style="fill:none;stroke:#343536;stroke-width:12.5px;"/><path id="Path-6" d="M1666.67,914.583l39.583,79.167l-33.333,0l-0,506.25c-0,42.104 33.757,76.324 75.682,77.071l1.401,0.012l750,0l0,12.5l-750,0c-48.981,0 -88.78,-39.309 -89.571,-88.102l-0.012,-1.481l-0,-506.25l-33.334,0l39.584,-79.167Z" style="fill:#4d27aa;fill-rule:nonzero;"/></g></svg>