<?xml version="1.0" encoding="UTF-8" standalone="no"?><!DOCTYPE svg PUBLIC "-//W3C//DTD SVG 1.1//EN" "http://www.w3.org/Graphics/SVG/1.1/DTD/svg11.dtd">
<svg width="100%" height="100%" viewBox="0 0 2500 1667" version="1.1"
    xmlns="http://www.w3.org/2000/svg"
    xmlns:xlink="http://www.w3.org/1999/xlink" xml:space="preserve"
    xmlns:serif="http://www.serif.com/" style="fill-rule:evenodd;clip-rule:evenodd;">
    <g id="Basic-Layout">
        <g id="experiment_01">
            <g id="h4">
                <path id="Rectangle" d="M2368.75,448.623c0,-14.188 -11.519,-25.706 -25.707,-25.706l-2186.09,-0c-14.188,-0 -25.707,11.518 -25.707,25.706l0,852.754c0,14.188 11.519,25.706 25.707,25.706l2186.09,0c14.188,0 25.707,-11.518 25.707,-25.706l0,-852.754Z" style="fill:#fff;stroke:#343536;stroke-width:12.5px;"/>
                <path id="Rectangle1" serif:id="Rectangle" d="M1077.08,740.29c0,-14.188 -11.518,-25.707 -25.706,-25.707l-727.754,0c-14.188,0 -25.706,11.519 -25.706,25.707l-0,444.42c-0,14.188 11.518,25.707 25.706,25.707l727.754,-0c14.188,-0 25.706,-11.519 25.706,-25.707l0,-444.42Z" style="fill:none;stroke:#343536;stroke-width:12.5px;"/>
                <path id="Rectangle2" serif:id="Rectangle" d="M2210.42,740.29c-0,-14.188 -11.519,-25.707 -25.707,-25.707l-740.253,0c-14.188,0 -25.707,11.519 -25.707,25.707l0,444.42c0,14.188 11.519,25.707 25.707,25.707l740.253,-0c14.188,-0 25.707,-11.519 25.707,-25.707l-0,-444.42Z" style="fill:none;stroke:#343536;stroke-width:12.5px;"/>
                <g id="Group-3">
                    <path id="Rectangle3" serif:id="Rectangle" d="M969.859,864.181c-0,-14.188 -11.519,-25.706 -25.707,-25.706l-496.637,-0c-14.188,-0 -25.707,11.518 -25.707,25.706l-0,242.471c-0,14.188 11.519,25.707 25.707,25.707l496.637,-0c14.188,-0 25.707,-11.519 25.707,-25.707l-0,-242.471Z" style="fill:none;stroke:#343536;stroke-width:10.28px;"/>
                    <g id="_-----" serif:id="{-…-}">
                        <text x="570px" y="1022.93px" style="font-family:'Gilmer-Bold', 'Gilmer';font-weight:700;font-size:128px;fill:#1d1f25;">{ … }</text>
                    </g>
                </g>
                <path id="Rectangle4" serif:id="Rectangle" d="M2074.03,868.348c0,-14.188 -11.518,-25.707 -25.706,-25.707l-479.971,0c-14.188,0 -25.707,11.519 -25.707,25.707l0,238.304c0,14.188 11.519,25.707 25.707,25.707l479.971,-0c14.188,-0 25.706,-11.519 25.706,-25.707l0,-238.304Z" style="fill:none;stroke:#343536;stroke-width:10.28px;"/>
                <g id="Icon-Resource-IoT-Res_IoT_Lambda_Function_48" serif:id="Icon-Resource/IoT/Res_IoT_Lambda_Function_48">
                    <path id="Amazon-IOT-RESOURCES-Lambda-function_Resource-Icon_light-bg" d="M187.5,570.734c0,-57.385 46.677,-104.067 104.063,-104.067c57.385,-0 104.062,46.682 104.062,104.067c0,57.381 -46.677,104.063 -104.063,104.063c-57.385,-0 -104.062,-46.682 -104.062,-104.063Zm-10.417,0c0,63.125 51.355,114.48 114.48,114.48c63.125,-0 114.479,-51.355 114.479,-114.48c-0,-63.13 -51.354,-114.484 -114.479,-114.484c-63.125,0 -114.48,51.354 -114.48,114.484Zm79.261,58.532l-27.854,-0l33.005,-69.146l13.948,28.786l-19.099,40.36Zm9.797,-83.433c-0.87,-1.791 -2.688,-2.932 -4.683,-2.932l-0.015,0c-2.005,0.005 -3.828,1.156 -4.688,2.964l-41.224,86.364c-0.771,1.615 -0.661,3.511 0.297,5.021c0.953,1.516 2.615,2.432 4.406,2.432l39.407,0c2.015,0 3.843,-1.161 4.708,-2.979l21.578,-45.594c0.672,-1.427 0.667,-3.083 -0.026,-4.505l-19.76,-40.771Zm88.51,83.433l-28.359,-0l-51.573,-110.818c-0.854,-1.833 -2.698,-3.011 -4.724,-3.011l-18.745,0l0.021,-21.453l37.557,0l51.328,110.808c0.854,1.838 2.698,3.02 4.724,3.02l9.771,0l0,21.454Zm-6.443,-31.87l-51.328,-110.807c-0.859,-1.839 -2.698,-3.021 -4.729,-3.021l-46.083,-0c-2.875,-0 -5.203,2.328 -5.209,5.203l-0.031,31.87c0,1.385 0.547,2.708 1.526,3.687c0.974,0.979 2.297,1.526 3.682,1.526l20.641,0l51.573,110.818c0.854,1.833 2.698,3.01 4.719,3.01l36.89,0c2.881,0 5.209,-2.328 5.209,-5.208l-0,-31.87c-0,-2.88 -2.328,-5.208 -5.209,-5.208l-11.651,-0Z" style="fill:#3f8624;"/>
                </g>
                <path id="Line" d="M975.125,953.46c16.697,0.061 30.482,12.65 32.849,29.018l502.839,1.847c2.486,-16.353 16.363,-28.843 33.062,-28.781c18.409,0.067 33.277,15.362 33.208,34.161c-0.069,18.8 -15.048,33.985 -33.458,33.918c-16.697,-0.061 -30.482,-12.65 -32.849,-29.018l-502.839,-1.846c-2.486,16.353 -16.363,28.842 -33.062,28.781c-18.409,-0.068 -33.277,-15.363 -33.208,-34.162c0.069,-18.8 15.048,-33.985 33.458,-33.918Z" style="fill:#343536;fill-rule:nonzero;"/>
                <g id="Secrets-object">
                    <text x="470.578px" y="800px" style="font-family:'Gilmer-Bold', 'Gilmer';font-weight:700;font-size:64px;fill:#1d1f25;">Secrets object</text>
                </g>
                <g id="Runtime-function">
                    <text x="1555.42px" y="800px" style="font-family:'Gilmer-Bold', 'Gilmer';font-weight:700;font-size:64px;fill:#1d1f25;">Runtime function</text>
                </g>
                <g id="EXECUTION-ENVIRONMENT">
                    <text x="454.015px" y="582.326px" style="font-family:'Gilmer-Heavy', 'Gilmer';font-weight:800;font-size:72px;fill:#1d1f25;">EXECUTION ENVIRONMENT</text>
                </g>
                <g id="Code">
                    <g id="Union_153">
                        <path id="Path" d="M1839.65,883.658c-4.773,-1.299 -9.665,1.417 -10.978,6.14l-53.693,194.847c-1.312,4.723 1.432,9.565 6.205,10.864c4.772,1.299 9.664,-1.417 10.977,-6.141l53.693,-194.846c1.313,-4.724 -1.432,-9.565 -6.204,-10.864Z" style="fill:#000001;fill-rule:nonzero;"/>
                        <path id="Path1" serif:id="Path" d="M1860.65,921.446c3.341,-3.543 9.068,-3.661 12.647,-0.236l65.625,61.997c1.79,1.653 2.745,4.015 2.745,6.376c-0,2.362 -0.955,4.724 -2.745,6.377l-65.625,61.997c-3.579,3.424 -9.306,3.306 -12.647,-0.236c-3.461,-3.543 -3.341,-9.211 0.238,-12.518l58.824,-55.62l-58.824,-55.62c-3.579,-3.306 -3.699,-8.974 -0.238,-12.517Z" style="fill:#000001;fill-rule:nonzero;"/>
                        <path id="Path2" serif:id="Path" d="M1759.94,933.963c3.58,-3.306 3.699,-8.974 0.239,-12.517c-3.341,-3.543 -9.068,-3.661 -12.648,-0.236l-65.625,61.997c-1.79,1.653 -2.744,4.015 -2.744,6.376c-0,2.362 0.954,4.724 2.744,6.377l65.625,61.997c3.58,3.424 9.307,3.306 12.648,-0.236c3.46,-3.543 3.341,-9.211 -0.239,-12.518l-58.824,-55.62l58.824,-55.62Z" style="fill:#000001;fill-rule:nonzero;"/>
                    </g>
                </g>
                <g id="Group-4">
                    <circle id="Oval" cx="1251.16" cy="1127.89" r="74.643" style="fill:#00acff;fill-opacity:0.75;stroke:#00acff;stroke-width:10.28px;"/>
                    <g id="_8" serif:id="8">
                        <g transform="matrix(0.999848,0.0174524,-0.0174524,0.999848,20.3046,-21.2935)">
                            <text x="1230.15px" y="1152.69px" style="font-family:'Gilmer-Heavy', 'Gilmer';font-weight:800;font-size:72px;fill:#fff;">8</text>
                        </g>
                    </g>
                </g>
                <path id="Path-9" d="M0,83.333l2375,0c46.024,0 83.333,37.31 83.333,83.334l0,1500" style="fill:none;stroke:#343536;stroke-width:12.5px;"/>
            </g>
        </g>
    </g>
</svg>