<?xml version="1.0" encoding="UTF-8" standalone="no"?><!DOCTYPE svg PUBLIC "-//W3C//DTD SVG 1.1//EN" "http://www.w3.org/Graphics/SVG/1.1/DTD/svg11.dtd"><svg width="100%" height="100%" viewBox="0 0 2500 1667" version="1.1" xmlns="http://www.w3.org/2000/svg" xmlns:xlink="http://www.w3.org/1999/xlink" xml:space="preserve" xmlns:serif="http://www.serif.com/" style="fill-rule:evenodd;clip-rule:evenodd;"><g id="h9"><rect id="Rectangle" x="0" y="0" width="2500" height="1666.67" style="fill:none;"/><path id="Rectangle1" serif:id="Rectangle" d="M2286.53,301.681c0,-14.188 -11.518,-25.706 -25.706,-25.706l-2021.64,-0c-14.188,-0 -25.706,11.518 -25.706,25.706l-0,1125.8c-0,14.188 11.518,25.707 25.706,25.707l2021.64,0c14.188,0 25.706,-11.519 25.706,-25.707l0,-1125.8Z" style="fill:#fff;stroke:#343536;stroke-width:10.28px;"/><g id="SECRETS-MANAGEMENT"><text x="581.534px" y="415.659px" style="font-family:'Gilmer-Heavy', 'Gilmer';font-weight:800;font-size:71.978px;fill:#1d1f25;">SE<tspan x="673.832px 729.087px " y="415.659px 415.659px ">CR</tspan>ET<tspan x="867.787px " y="415.659px ">S</tspan> MAN<tspan x="1101.3px 1151.74px " y="415.659px 415.659px ">AG</tspan>EMEN<tspan x="1414.48px " y="415.659px ">T</tspan></text></g><g id="Account-Label"><g id="HCP-Vault---US-East"><text x="577.899px" y="108.333px" style="font-family:'Gilmer-Heavy', 'Gilmer';font-weight:800;font-size:71.978px;fill:#1d1f25;">HC<tspan x="685.528px " y="108.333px ">P</tspan> V<tspan x="797.092px " y="108.333px ">a</tspan>ult <tspan x="955.608px " y="108.333px ">-</tspan> U<tspan x="1059.18px " y="108.333px ">S</tspan> E<tspan x="1169.09px 1215.49px 1252.46px " y="108.333px 108.333px 108.333px ">ast</tspan></text></g><g id="Group_3"><path id="Vector_10" d="M268.591,93.532c0,3.171 0.342,5.737 0.938,7.631c0.695,1.883 1.555,3.942 2.758,6.167c0.419,0.683 0.596,1.376 0.596,1.971c-0,0.859 -0.519,1.718 -1.633,2.577l-5.406,3.601c-0.772,0.517 -1.544,0.77 -2.239,0.77c-0.85,0 -1.71,-0.429 -2.571,-1.2c-1.202,-1.288 -2.228,-2.654 -3.089,-4.03c-0.86,-1.454 -1.721,-3.084 -2.658,-5.055c-6.697,7.885 -15.114,11.827 -25.253,11.827c-7.204,0 -12.962,-2.059 -17.166,-6.178c-4.203,-4.107 -6.354,-9.602 -6.354,-16.462c-0,-7.279 2.581,-13.204 7.811,-17.663c5.24,-4.449 12.19,-6.685 21.038,-6.685c2.923,0 5.924,0.254 9.101,0.683c3.177,0.43 6.443,1.123 9.874,1.894l-0,-6.266c-0,-6.508 -1.379,-11.056 -4.038,-13.72c-2.747,-2.654 -7.38,-3.943 -13.989,-3.943c-3.011,0 -6.1,0.342 -9.278,1.123c-3.177,0.771 -6.266,1.707 -9.266,2.908c-1.379,0.605 -2.405,0.947 -3.012,1.112c-0.596,0.176 -1.026,0.264 -1.368,0.264c-1.203,0 -1.809,-0.859 -1.809,-2.665l-0,-4.195c-0,-1.377 0.176,-2.401 0.606,-3.007c0.431,-0.594 1.203,-1.2 2.405,-1.795c3.001,-1.541 6.608,-2.83 10.812,-3.854c4.214,-1.123 8.671,-1.629 13.393,-1.629c10.215,-0 17.695,2.312 22.494,6.937c4.722,4.636 7.127,11.662 7.127,21.099l-0,27.783l0.176,-0Zm-34.861,13.027c2.835,-0 5.759,-0.518 8.848,-1.542c3.089,-1.035 5.836,-2.918 8.152,-5.484c1.379,-1.629 2.405,-3.435 2.924,-5.495c0.507,-2.059 0.86,-4.536 0.86,-7.455l0,-3.6c-2.493,-0.606 -5.152,-1.113 -7.899,-1.465c-2.758,-0.341 -5.416,-0.507 -8.075,-0.507c-5.748,0 -9.962,1.113 -12.797,3.425c-2.825,2.313 -4.204,5.572 -4.204,9.867c0,4.03 1.026,7.025 3.178,9.085c2.063,2.147 5.063,3.171 9.013,3.171Zm68.95,9.261c-1.555,0 -2.581,-0.253 -3.265,-0.859c-0.684,-0.517 -1.291,-1.718 -1.809,-3.348l-20.178,-66.269c-0.508,-1.718 -0.772,-2.83 -0.772,-3.436c-0,-1.365 0.695,-2.147 2.063,-2.147l8.417,-0c1.633,-0 2.747,0.264 3.343,0.859c0.695,0.517 1.202,1.718 1.721,3.347l14.43,56.767l13.393,-56.767c0.43,-1.718 0.937,-2.83 1.632,-3.347c0.684,-0.507 1.887,-0.859 3.431,-0.859l6.862,-0c1.633,-0 2.747,0.264 3.442,0.859c0.684,0.517 1.28,1.718 1.633,3.347l13.558,57.449l14.861,-57.449c0.507,-1.718 1.114,-2.83 1.71,-3.347c0.695,-0.507 1.809,-0.859 3.353,-0.859l7.988,-0c1.368,-0 2.14,0.694 2.14,2.147c-0,0.43 -0.088,0.859 -0.166,1.377c-0.088,0.506 -0.264,1.2 -0.606,2.136l-20.686,66.281c-0.518,1.717 -1.125,2.83 -1.809,3.347c-0.684,0.518 -1.798,0.859 -3.265,0.859l-7.381,0c-1.632,0 -2.747,-0.264 -3.431,-0.859c-0.695,-0.605 -1.29,-1.718 -1.632,-3.436l-13.305,-55.301l-13.228,55.224c-0.43,1.707 -0.948,2.83 -1.632,3.425c-0.684,0.606 -1.887,0.859 -3.431,0.859l-7.381,0Zm110.321,2.313c-4.457,-0 -8.925,-0.507 -13.217,-1.542c-4.291,-1.024 -7.645,-2.147 -9.873,-3.425c-1.379,-0.771 -2.317,-1.63 -2.67,-2.4c-0.342,-0.771 -0.507,-1.63 -0.507,-2.401l-0,-4.383c-0,-1.795 0.684,-2.654 1.974,-2.654c0.508,0 1.026,0.088 1.545,0.254c0.518,0.176 1.29,0.517 2.14,0.859c2.923,1.288 6.101,2.323 9.443,3.006c3.442,0.683 6.785,1.024 10.227,1.024c5.406,-0 9.609,-0.936 12.533,-2.83c2.912,-1.883 4.468,-4.625 4.468,-8.138c-0,-2.401 -0.773,-4.372 -2.328,-6.001c-1.545,-1.63 -4.457,-3.095 -8.671,-4.46l-12.445,-3.865c-6.266,-1.972 -10.899,-4.89 -13.735,-8.744c-2.835,-3.777 -4.291,-7.973 -4.291,-12.432c0,-3.601 0.772,-6.773 2.317,-9.515c1.544,-2.742 3.607,-5.142 6.178,-7.036c2.581,-1.971 5.494,-3.425 8.925,-4.46c3.442,-1.024 7.049,-1.454 10.822,-1.454c1.887,0 3.861,0.088 5.748,0.342c1.975,0.264 3.784,0.605 5.582,0.947c1.721,0.429 3.354,0.859 4.898,1.365c1.545,0.518 2.747,1.035 3.608,1.553c1.202,0.683 2.063,1.365 2.57,2.136c0.519,0.683 0.772,1.63 0.772,2.83l0,4.031c0,1.806 -0.684,2.742 -1.974,2.742c-0.684,-0 -1.799,-0.342 -3.255,-1.024c-4.898,-2.236 -10.392,-3.348 -16.493,-3.348c-4.887,-0 -8.748,0.771 -11.418,2.4c-2.659,1.63 -4.038,4.119 -4.038,7.632c0,2.4 0.861,4.46 2.582,6.089c1.721,1.63 4.898,3.26 9.443,4.713l12.191,3.866c6.189,1.971 10.646,4.713 13.304,8.225c2.67,3.513 3.95,7.544 3.95,12.003c-0,3.689 -0.772,7.037 -2.229,9.944c-1.544,2.918 -3.607,5.495 -6.266,7.554c-2.659,2.137 -5.836,3.689 -9.531,4.802c-3.862,1.2 -7.899,1.795 -12.279,1.795Z" style="fill:#252f3e;fill-rule:nonzero;"/><g id="Group_4"><path id="Vector_11" d="M429.229,159.802c-28.253,20.845 -69.292,31.901 -104.584,31.901c-49.446,0 -94.015,-18.269 -127.663,-48.618c-2.67,-2.4 -0.265,-5.66 2.913,-3.777c36.405,21.099 81.306,33.873 127.762,33.873c31.331,0 65.762,-6.519 97.446,-19.887c4.722,-2.148 8.759,3.083 4.126,6.508Z" style="fill:#f90;"/><path id="Vector_12" d="M440.989,146.433c-3.607,-4.636 -23.873,-2.235 -33.052,-1.112c-2.758,0.341 -3.177,-2.059 -0.695,-3.865c16.14,-11.321 42.672,-8.061 45.761,-4.284c3.1,3.854 -0.849,30.349 -15.963,43.046c-2.317,1.971 -4.557,0.936 -3.52,-1.63c3.431,-8.49 11.077,-27.618 7.469,-32.155Z" style="fill:#f90;"/></g></g></g><g id="SECRETS-ENGINE"><text x="374.821px" y="733.333px" style="font-family:'Gilmer-Heavy', 'Gilmer';font-weight:800;font-size:71.978px;fill:#1d1f25;">SE<tspan x="467.119px 522.374px " y="733.333px 733.333px ">CR</tspan>ET<tspan x="661.074px " y="733.333px ">S</tspan></text><text x="404.872px" y="820.833px" style="font-family:'Gilmer-Heavy', 'Gilmer';font-weight:800;font-size:71.978px;fill:#1d1f25;">ENGIN<tspan x="634.071px " y="820.833px ">E</tspan></text></g><g id="ACCESS-POLICIES"><text x="1100.14px" y="732.59px" style="font-family:'Gilmer-Heavy', 'Gilmer';font-weight:800;font-size:71.978px;fill:#1d1f25;">A<tspan x="1150.57px 1205.83px 1261.08px 1304.75px 1352.3px " y="732.59px 732.59px 732.59px 732.59px 732.59px ">CCESS</tspan></text><text x="1082.58px" y="820.09px" style="font-family:'Gilmer-Heavy', 'Gilmer';font-weight:800;font-size:71.978px;fill:#1d1f25;">POLIC<tspan x="1305.73px 1326.44px 1370.1px " y="820.09px 820.09px 820.09px ">IES</tspan></text></g><g id="AUTH-ENGINE"><text x="1857.38px" y="733.333px" style="font-family:'Gilmer-Heavy', 'Gilmer';font-weight:800;font-size:71.978px;fill:#1d1f25;">A<tspan x="1908.54px " y="733.333px ">U</tspan>TH</text><text x="1821.54px" y="820.833px" style="font-family:'Gilmer-Heavy', 'Gilmer';font-weight:800;font-size:71.978px;fill:#1d1f25;">ENGIN<tspan x="2050.74px " y="820.833px ">E</tspan></text></g><path id="Line-2" d="M1606.09,925.253l0.515,28.893l53.23,-0.953l5.141,-0.092l0.184,10.281l-5.14,0.092l-53.227,0.951l0.517,28.897l-67.266,-32.839l66.046,-35.23Z" style="fill:#343536;fill-rule:nonzero;"/><path id="Line-21" serif:id="Line-2" d="M897.759,929.42l0.516,28.893l53.23,-0.953l5.141,-0.093l0.184,10.281l-5.141,0.092l-53.226,0.952l0.517,28.897l-67.266,-32.839l66.045,-35.23Z" style="fill:#343536;fill-rule:nonzero;"/><g id="create--read--update" serif:id="create,-read,-update"><text x="1060.44px" y="928.769px" style="font-family:'Gilmer-Bold', 'Gilmer';font-weight:700;font-size:61.696px;fill:#1d1f25;">cr<tspan x="1118.21px " y="928.769px ">e</tspan>at<tspan x="1218.6px 1253.87px " y="928.769px 928.769px ">e,</tspan> r<tspan x="1307.86px " y="928.769px ">e</tspan>ad,</text><text x="1133.61px" y="1003.77px" style="font-family:'Gilmer-Bold', 'Gilmer';font-weight:700;font-size:61.696px;fill:#1d1f25;">updat<tspan x="1315.03px 1350.3px " y="1003.77px 1003.77px ">e,</tspan></text><text x="1096.25px" y="1078.77px" style="font-family:'Gilmer-Bold', 'Gilmer';font-weight:700;font-size:61.696px;fill:#1d1f25;">dele<tspan x="1224.63px 1248.55px 1283.82px " y="1078.77px 1078.77px 1078.77px ">te,</tspan> lis<tspan x="1379.61px " y="1078.77px ">t</tspan></text></g><g id="_172.25.16.101" serif:id="172.25.16.101"><text x="1748.92px" y="415.659px" style="font-family:'Gilmer-Heavy', 'Gilmer';font-weight:800;font-size:71.978px;fill:#1d1f25;">172<tspan x="1863.87px 1884.64px 1927.3px 1969.67px 1983.25px 2015.33px 2057.48px 2071.06px 2103.14px 2148.82px " y="415.659px 415.659px 415.659px 415.659px 415.659px 415.659px 415.659px 415.659px 415.659px 415.659px ">.25.16.101</tspan></text></g><g id="Union_344"><path id="Shape" d="M567.804,927.522c5.379,-5.398 12.519,-8.334 20.086,-8.334c3.759,0 7.424,0.758 10.871,2.178c10.606,4.451 17.529,14.678 17.529,26.231c-0,7.481 -3.04,14.773 -8.286,20.076c-5.351,5.398 -12.529,8.333 -20.114,8.333c-11.544,0 -21.819,-6.912 -26.241,-17.518l-0.009,-0c-4.385,-10.701 -2.018,-22.822 6.164,-30.966Zm10.048,10.037c2.689,-2.746 6.212,-4.166 10.038,-4.166c1.856,-0 3.674,0.379 5.407,1.041c5.351,2.273 8.788,7.387 8.788,13.163c0,3.694 -1.525,7.387 -4.167,10.038c-2.661,2.652 -6.202,4.167 -10.028,4.167c-5.758,-0 -10.89,-3.409 -13.125,-8.807c-2.207,-5.303 -1.004,-11.364 3.068,-15.436l0.019,0Z" style="fill:#000001;"/><path id="Shape1" serif:id="Shape" d="M571.848,881.972c3.22,-0.473 6.477,-0.663 9.669,-0.663c19.403,0 37.689,7.576 51.411,21.307c15.9,15.909 23.589,38.731 20.606,60.985c-3.02,22.349 -16.449,42.33 -35.985,53.409c-10.985,6.345 -23.447,9.659 -36.089,9.659c-8.296,0 -16.411,-1.42 -24.177,-4.166l-9.848,9.848c-2.131,2.273 -5.104,3.504 -8.173,3.504l-11.979,-0l0,10.322c-0.076,3.314 -1.383,6.345 -3.627,8.712l-0.066,0.095c-2.453,2.557 -5.815,3.882 -9.195,3.882l-10.266,0l0,11.553c0.105,3.031 -1.041,5.966 -3.134,8.239c-0.038,-0 -0.076,-0 -0.104,0.095l-0.067,-0l-8.769,8.806c-1.335,1.326 -3.144,2.084 -5.028,2.084l-34.091,-0c-3.921,-0 -7.103,-3.22 -7.103,-7.102l0,-34.281c0,-1.799 0.748,-3.693 2.084,-5.019l65.048,-64.962c-6.97,-19.791 -5.057,-42.045 5.416,-60.322c11.194,-19.602 31.156,-33.049 53.467,-35.985Zm1.922,14.016c2.529,-0.285 5.133,-0.474 7.747,-0.474c15.634,0 30.312,6.061 41.364,17.14c12.774,12.784 18.977,31.155 16.572,49.053c-2.424,17.993 -13.267,34.091 -28.949,42.993c-8.845,5.019 -18.883,7.765 -29.044,7.765c-7.822,-0 -15.455,-1.61 -22.699,-4.64c-0.966,-0.379 -2.008,-0.569 -3.05,-0.569c-2.386,0 -4.233,0.947 -5.511,2.273l-12.14,12.121l-15.19,0c-5.473,0 -9.792,4.451 -9.792,9.754l0,13.258l-13.362,-0c-5.464,-0 -9.791,4.451 -9.791,9.754l-0,15.151l-5.834,5.871l-24.053,0l0,-24.242l65.862,-65.815c2.15,-2.178 3.04,-5.492 1.696,-8.617c-7.018,-16.761 -5.862,-36.08 3.115,-51.799c8.996,-15.72 25.105,-26.515 43.031,-28.977l0.028,-0Z" style="fill:#000001;"/></g><g id="Group-4"><ellipse id="Oval" cx="892.226" cy="603.564" rx="74.585" ry="73.422" style="fill:#00acff;fill-opacity:0.75;stroke:#00acff;stroke-width:10.28px;"/><g id="_6" serif:id="6"><g transform="matrix(0.999848,0.0174524,-0.0174524,0.999848,11.0908,-15.1332)"><text x="872.592px" y="627.874px" style="font-family:'Gilmer-Heavy', 'Gilmer';font-weight:800;font-size:71.978px;fill:#fff;">6</text></g></g></g><g id="HCP---HVN-172.25.16."><text x="295.833px" y="1283.33px" style="font-family:'Gilmer-Heavy', 'Gilmer';font-weight:800;font-size:71.978px;fill:#1d1f25;">HC<tspan x="403.463px " y="1283.33px ">P</tspan> - H<tspan x="572.56px " y="1283.33px ">V</tspan>N</text><text x="295.833px" y="1370.83px" style="font-family:'Gilmer-Heavy', 'Gilmer';font-weight:800;font-size:71.978px;fill:#1d1f25;">172<tspan x="410.78px 431.557px 474.215px 516.586px 530.165px 562.242px 604.397px 622.295px 666.536px 705.308px 746.887px " y="1370.83px 1370.83px 1370.83px 1370.83px 1370.83px 1370.83px 1370.83px 1370.83px 1370.83px 1370.83px 1370.83px ">.25.16.0/20</tspan></text></g><path id="Path-3" d="M1333.33,83.333l1041.67,1.927c46.024,0.007 83.264,37.385 83.179,83.409c0,0.026 0,0.052 -0.078,0.078l-3.703,1329.48c-0.128,45.905 -37.356,83.062 -83.261,83.101l-2246.14,1.937c-46.024,0.112 -83.365,-37.165 -83.405,-83.189c-0,-0.024 -0,-0.048 0.072,-0.072l-0,-1331.25c-0,-46.024 37.309,-83.333 83.333,-83.333l41.667,-0" style="fill:none;stroke:#343536;stroke-width:12.5px;"/><path id="Shape2" serif:id="Shape" d="M291.667,333.333l103.803,208.334l104.53,-208.334l-208.333,0Zm116.156,41.823l12.084,0l-0,12.003l-12.084,0l0,-12.003Zm-24.06,48.443l-12.084,0l-0,-12.218l12.084,-0l-0,12.218Zm-0,-18.112l-12.084,0l-0,-12.218l12.084,-0l-0,12.218Zm-0,-18.112l-12.084,-0l-0,-12.219l12.084,0l-0,12.219Zm18.247,54.202l-12.219,0l0,-12.084l12.219,0l-0,12.084Zm-0,-18.112l-12.219,-0l0,-12.084l12.219,-0l-0,12.084Zm-0,-18.113l-12.219,0l0,-12.083l12.219,-0l-0,12.083Zm-0,-18.193l-12.219,0l0,-12.003l12.219,0l-0,12.003Zm5.948,6.029l12.084,-0l-0,12.084l-12.219,-0l0.135,-12.084Zm-0,30.196l-0,-12.003l12.084,-0l-0,12.084l-12.084,-0.081Z" style="fill-rule:nonzero;"/><path id="Path-11" d="M716.667,750l41.666,0c23.012,0 41.667,18.655 41.667,41.667l-0,333.333c-0,23.012 -18.655,41.667 -41.667,41.667l-416.666,-0c-23.012,-0 -41.667,-18.655 -41.667,-41.667l-0,-333.333c-0,-23.012 18.655,-41.667 41.667,-41.667l41.666,0" style="fill:none;stroke:#343536;stroke-width:12.5px;"/><path id="Path-111" serif:id="Path-11" d="M2125,750l41.667,0c23.012,0 41.666,18.655 41.666,41.667l0,333.333c0,23.012 -18.654,41.667 -41.666,41.667l-416.667,-0c-23.012,-0 -41.667,-18.655 -41.667,-41.667l0,-333.333c0,-23.012 18.655,-41.667 41.667,-41.667l41.667,0" style="fill:none;stroke:#343536;stroke-width:12.5px;"/><path id="Path-112" serif:id="Path-11" d="M1416.67,750l41.666,0c23.012,0 41.667,18.655 41.667,41.667l0,333.333c0,23.012 -18.655,41.667 -41.667,41.667l-416.666,-0c-23.012,-0 -41.667,-18.655 -41.667,-41.667l0,-333.333c0,-23.012 18.655,-41.667 41.667,-41.667l41.666,0" style="fill:none;stroke:#343536;stroke-width:12.5px;"/><g id="Icon-Resource-Security-Identity-and-Compliance-Res_AWS-Identity-Access-Management_Role_48" serif:id="Icon-Resource/Security-Identity-and-Compliance/Res_AWS-Identity-Access-Management_Role_48"><path id="AWS-Identity-and-Access-Management_Role_Resource-Icon_light-bg" d="M2075.43,1031.72c-0.813,0.057 -1.63,0.119 -2.407,0.197c-2.718,0.224 -5.562,0.495 -8.437,0.797l-0.875,0.094c-9.193,0.948 -19.599,2.016 -24.552,1.339c-3.094,-0.443 -8.792,-2.917 -14.833,-5.537c-10.24,-4.437 -22.99,-9.969 -34.516,-10.854c-15.865,-1.219 -43.276,1.771 -60.953,10.057c-10.219,-0.458 -19.698,-3.208 -27.063,-7.75c-0.031,-1.416 -0.062,-2.833 -0.062,-3.38c-0,-21.542 10.094,-41.745 27.708,-55.469c11.964,-6.994 25.75,-10.687 39.896,-10.687c31.88,-0 60.172,18.838 71.208,46.573l-4.234,-0c-4.24,-0 -7.792,3 -8.662,6.979c-0.718,-0.271 -1.375,-0.516 -2.145,-0.813c-10.568,-4.078 -25.068,-9.656 -41.828,-8.661c-24.506,1.437 -36.563,2.917 -46.058,5.625l2.86,10.021c8.687,-2.485 20.145,-3.854 43.807,-5.25c14.5,-0.823 27.797,4.26 37.469,7.984c2.057,0.797 3.916,1.49 5.682,2.12l-0,1.068c-0,4.89 3.984,8.875 8.875,8.875l18.995,-0c4.88,-0 8.859,-3.969 8.875,-8.844l1.843,-0.167c3.089,-0.276 5.928,-0.552 8.308,-0.786l1.099,-0.11l-0,16.579Zm-178.563,8.687c-13.802,1.891 -24.698,0.203 -29.208,-2.583c2.734,-1.933 8.906,-4.636 13.25,-6.532c3.76,-1.64 7.568,-3.375 11.25,-5.229c6.01,4.578 13.453,8.011 21.693,10.058c-4.766,1.916 -10.667,3.427 -16.985,4.286Zm140.985,-25.776l15.911,0l0,-7.115l-15.911,0l-0,7.115Zm-53.552,-84.896c43.583,0 80.187,32.787 85.578,75.479c-1.5,0.146 -3.084,0.297 -4.756,0.448l-0.963,0.084c-0.125,-4.782 -4.037,-8.646 -8.854,-8.646l-3.703,-0c-11.464,-33.735 -44.667,-56.99 -82.266,-56.99c-13.927,0 -27.552,3.188 -39.797,9.245c0.089,-0.073 0.162,-0.151 0.24,-0.219c15.317,-12.51 34.677,-19.401 54.521,-19.401Zm98.651,77.052c-0.756,-0.682 -1.646,-1.177 -2.594,-1.552c-5.448,-48.495 -46.766,-85.916 -96.057,-85.916c-22.235,-0 -43.938,7.723 -61.105,21.744c-22.672,18.459 -35.672,45.808 -35.672,75.032c0,0.213 0.016,0.427 0.016,0.64c-3.474,1.745 -7.146,3.412 -10.797,5.011c-11.125,4.864 -19.161,8.375 -20.359,14.718c-0.302,1.61 -0.354,4.761 2.708,7.823c5.401,5.401 15.766,7.339 26.297,7.339c4.385,-0 8.792,-0.334 12.885,-0.896c6.974,-0.948 19.995,-3.505 28.834,-9.974c13.948,-10.109 45.484,-13.891 61.906,-12.615c9.787,0.756 21.641,5.896 31.172,10.026c7.271,3.162 13.021,5.652 17.531,6.292c6.203,0.849 16.334,-0.193 27.057,-1.292l0.902,-0.088c2.802,-0.302 5.562,-0.563 8.291,-0.787c1.12,-0.109 2.229,-0.187 3.709,-0.291c4.583,-0.323 8.171,-4.167 8.171,-8.75l0,-19.943c0,-2.489 -1.052,-4.864 -2.895,-6.521Z" style="fill:#bf0816;"/></g></g></svg>