<?xml version="1.0" encoding="UTF-8" standalone="no"?><!DOCTYPE svg PUBLIC "-//W3C//DTD SVG 1.1//EN" "http://www.w3.org/Graphics/SVG/1.1/DTD/svg11.dtd"><svg width="100%" height="100%" viewBox="0 0 2500 1667" version="1.1" xmlns="http://www.w3.org/2000/svg" xmlns:xlink="http://www.w3.org/1999/xlink" xml:space="preserve" xmlns:serif="http://www.serif.com/" style="fill-rule:evenodd;clip-rule:evenodd;"><g id="Basic-Layout"><g id="experiment_01"><g id="h5"><path id="Rectangle" d="M2369.86,114.181c-0,-14.188 -11.519,-25.706 -25.707,-25.706l-2188.3,-0c-14.188,-0 -25.707,11.518 -25.707,25.706l0,1438.3c0,14.188 11.519,25.707 25.707,25.707l2188.3,0c14.188,0 25.707,-11.519 25.707,-25.707l-0,-1438.3Z" style="fill:#fff;stroke:#343536;stroke-width:10.28px;"/><path id="Rectangle1" serif:id="Rectangle" d="M2244.86,447.515c-0,-14.188 -11.519,-25.707 -25.707,-25.707l-1479.97,-0c-14.188,-0 -25.706,11.519 -25.706,25.707l-0,396.637c-0,14.188 11.518,25.707 25.706,25.707l1479.97,-0c14.188,-0 25.707,-11.519 25.707,-25.707l-0,-396.637Z" style="fill:none;stroke:#343536;stroke-width:10.28px;"/><path id="Rectangle2" serif:id="Rectangle" d="M2244.86,1030.85c-0,-14.188 -11.519,-25.707 -25.707,-25.707l-1479.97,0c-14.188,0 -25.706,11.519 -25.706,25.707l-0,396.637c-0,14.188 11.518,25.707 25.706,25.707l1479.97,0c14.188,0 25.707,-11.519 25.707,-25.707l-0,-396.637Z" style="fill:none;stroke:#343536;stroke-width:10.28px;"/><g id="Icon-Resource-Security-Identity-and-Compliance-Res_AWS-Identity-Access-Management_Role_48" serif:id="Icon-Resource/Security-Identity-and-Compliance/Res_AWS-Identity-Access-Management_Role_48"><path id="AWS-Identity-and-Access-Management_Role_Resource-Icon_light-bg" d="M1374.41,694.393c-0.854,0.06 -1.712,0.126 -2.527,0.208c-2.855,0.235 -5.841,0.519 -8.859,0.837l-0.919,0.098c-9.652,0.995 -20.579,2.116 -25.78,1.406c-3.248,-0.465 -9.231,-3.063 -15.575,-5.814c-10.751,-4.659 -24.139,-10.467 -36.241,-11.397c-16.658,-1.279 -45.44,1.86 -64.001,10.561c-10.73,-0.482 -20.683,-3.369 -28.416,-8.138c-0.032,-1.487 -0.065,-2.975 -0.065,-3.549c-0,-22.619 10.598,-43.832 29.094,-58.242c12.561,-7.345 27.037,-11.222 41.89,-11.222c33.474,-0 63.181,19.78 74.769,48.901l-4.446,0c-4.452,0 -8.181,3.15 -9.095,7.328c-0.754,-0.284 -1.443,-0.541 -2.253,-0.853c-11.096,-4.282 -26.321,-10.139 -43.919,-9.094c-25.731,1.509 -38.391,3.062 -48.361,5.906l3.003,10.522c9.122,-2.609 21.153,-4.047 45.997,-5.513c15.225,-0.864 29.187,4.474 39.343,8.384c2.16,0.837 4.112,1.564 5.966,2.226l0,1.121c0,5.135 4.184,9.319 9.319,9.319l19.944,-0c5.125,-0 9.303,-4.168 9.319,-9.286l1.936,-0.175c3.243,-0.29 6.223,-0.58 8.723,-0.826l1.154,-0.115l-0,17.407Zm-187.491,9.122c-14.492,1.985 -25.933,0.213 -30.669,-2.713c2.871,-2.028 9.352,-4.867 13.913,-6.857c3.948,-1.723 7.946,-3.544 11.812,-5.491c6.311,4.807 14.126,8.411 22.778,10.56c-5.004,2.013 -11.2,3.599 -17.834,4.501Zm148.034,-27.065l16.707,0l-0,-7.47l-16.707,-0l-0,7.47Zm-56.23,-89.14c45.762,-0 84.197,34.425 89.857,79.253c-1.575,0.153 -3.238,0.311 -4.993,0.47l-1.012,0.087c-0.131,-5.02 -4.238,-9.078 -9.297,-9.078l-3.888,0c-12.037,-35.421 -46.9,-59.839 -86.379,-59.839c-14.623,0 -28.93,3.347 -41.787,9.707c0.093,-0.076 0.17,-0.158 0.252,-0.229c16.084,-13.136 36.411,-20.371 57.247,-20.371Zm103.583,80.904c-0.792,-0.716 -1.728,-1.236 -2.723,-1.629c-5.72,-50.92 -49.104,-90.213 -100.86,-90.213c-23.346,0 -46.134,8.11 -64.159,22.832c-23.806,19.381 -37.456,48.098 -37.456,78.783c0,0.224 0.016,0.448 0.016,0.673c-3.647,1.832 -7.503,3.582 -11.336,5.26c-11.682,5.108 -20.12,8.794 -21.378,15.455c-0.317,1.69 -0.371,4.999 2.844,8.214c5.671,5.671 16.554,7.706 27.612,7.706c4.605,-0 9.231,-0.35 13.53,-0.941c7.322,-0.995 20.994,-3.68 30.275,-10.473c14.645,-10.614 47.758,-14.585 65.001,-13.245c10.276,0.793 22.723,6.191 32.731,10.527c7.634,3.32 13.671,5.934 18.407,6.607c6.514,0.891 17.15,-0.203 28.411,-1.357l0.946,-0.093c2.942,-0.317 5.84,-0.59 8.706,-0.825c1.176,-0.115 2.341,-0.197 3.894,-0.307c4.812,-0.339 8.58,-4.375 8.58,-9.187l0,-20.94c0,-2.614 -1.105,-5.108 -3.041,-6.847Z" style="fill:#bf0816;"/></g><path id="Line" d="M1425,495.061l2.083,301.545" style="fill:none;stroke:#343536;stroke-width:10.28px;stroke-linecap:square;"/><g id="Execution-Role-ARN"><text x="763.443px" y="630.451px" style="font-family:'Gilmer-Bold', 'Gilmer';font-weight:700;font-size:61.696px;fill:#1d1f25;">Ex<tspan x="834.418px " y="630.451px ">e</tspan>cutio<tspan x="1024.33px " y="630.451px ">n</tspan></text><text x="773.037px" y="705.451px" style="font-family:'Gilmer-Bold', 'Gilmer';font-weight:700;font-size:61.696px;fill:#1d1f25;">R<tspan x="814.663px " y="705.451px ">o</tspan>le AR<tspan x="1007.66px " y="705.451px ">N</tspan></text></g><g id="Icon-Resource-Security-Identity-and-Compliance-Res_AWS-Identity-Access-Management_Role_481" serif:id="Icon-Resource/Security-Identity-and-Compliance/Res_AWS-Identity-Access-Management_Role_48"><path id="AWS-Identity-and-Access-Management_Role_Resource-Icon_light-bg1" serif:id="AWS-Identity-and-Access-Management_Role_Resource-Icon_light-bg" d="M1374.41,1277.73c-0.854,0.061 -1.712,0.126 -2.527,0.208c-2.855,0.235 -5.841,0.52 -8.859,0.837l-0.919,0.098c-9.652,0.996 -20.579,2.117 -25.78,1.406c-3.248,-0.465 -9.231,-3.063 -15.575,-5.813c-10.751,-4.66 -24.139,-10.468 -36.241,-11.397c-16.658,-1.28 -45.44,1.859 -64.001,10.56c-10.73,-0.481 -20.683,-3.369 -28.416,-8.138c-0.032,-1.487 -0.065,-2.975 -0.065,-3.549c-0,-22.619 10.598,-43.832 29.094,-58.242c12.561,-7.345 27.037,-11.222 41.89,-11.222c33.474,0 63.181,19.781 74.769,48.902l-4.446,-0c-4.452,-0 -8.181,3.15 -9.095,7.328c-0.754,-0.285 -1.443,-0.542 -2.253,-0.853c-11.096,-4.282 -26.321,-10.139 -43.919,-9.095c-25.731,1.509 -38.391,3.063 -48.361,5.906l3.003,10.522c9.122,-2.608 21.153,-4.047 45.997,-5.512c15.225,-0.864 29.187,4.473 39.343,8.383c2.16,0.837 4.112,1.564 5.966,2.226l0,1.121c0,5.135 4.184,9.319 9.319,9.319l19.944,-0c5.125,-0 9.303,-4.167 9.319,-9.286l1.936,-0.175c3.243,-0.29 6.223,-0.58 8.723,-0.826l1.154,-0.115l-0,17.407Zm-187.491,9.122c-14.492,1.985 -25.933,0.214 -30.669,-2.712c2.871,-2.029 9.352,-4.867 13.913,-6.858c3.948,-1.723 7.946,-3.544 11.812,-5.491c6.311,4.807 14.126,8.411 22.778,10.561c-5.004,2.012 -11.2,3.598 -17.834,4.5Zm148.034,-27.065l16.707,0l-0,-7.47l-16.707,0l-0,7.47Zm-56.23,-89.14c45.762,-0 84.197,34.426 89.857,79.253c-1.575,0.153 -3.238,0.312 -4.993,0.47l-1.012,0.088c-0.131,-5.021 -4.238,-9.078 -9.297,-9.078l-3.888,-0c-12.037,-35.421 -46.9,-59.839 -86.379,-59.839c-14.623,-0 -28.93,3.346 -41.787,9.707c0.093,-0.077 0.17,-0.159 0.252,-0.23c16.084,-13.136 36.411,-20.371 57.247,-20.371Zm103.583,80.905c-0.792,-0.717 -1.728,-1.236 -2.723,-1.63c-5.72,-50.92 -49.104,-90.213 -100.86,-90.213c-23.346,0 -46.134,8.11 -64.159,22.832c-23.806,19.382 -37.456,48.098 -37.456,78.783c0,0.224 0.016,0.449 0.016,0.673c-3.647,1.832 -7.503,3.582 -11.336,5.261c-11.682,5.108 -20.12,8.794 -21.378,15.454c-0.317,1.69 -0.371,4.999 2.844,8.215c5.671,5.671 16.554,7.705 27.612,7.705c4.605,-0 9.231,-0.35 13.53,-0.941c7.322,-0.995 20.994,-3.68 30.275,-10.472c14.645,-10.615 47.758,-14.585 65.001,-13.246c10.276,0.793 22.723,6.191 32.731,10.528c7.634,3.319 13.671,5.933 18.407,6.606c6.514,0.891 17.15,-0.202 28.411,-1.356l0.946,-0.093c2.942,-0.317 5.84,-0.591 8.706,-0.826c1.176,-0.115 2.341,-0.197 3.894,-0.306c4.812,-0.339 8.58,-4.375 8.58,-9.188l0,-20.94c0,-2.614 -1.105,-5.107 -3.041,-6.846Z" style="fill:#bf0816;"/></g><g id="AWS-IAM-principal"><text x="777.047px" y="1207.21px" style="font-family:'Gilmer-Bold', 'Gilmer';font-weight:700;font-size:61.696px;fill:#1d1f25;">A<tspan x="818.303px 878.808px " y="1207.21px 1207.21px ">WS</tspan> IAM</text><text x="780.132px" y="1282.21px" style="font-family:'Gilmer-Bold', 'Gilmer';font-weight:700;font-size:61.696px;fill:#1d1f25;">princi<tspan x="950.117px " y="1282.21px ">p</tspan>al</text></g><g id="Permissions-policy"><text x="1766.02px" y="624.405px" style="font-family:'Gilmer-Bold', 'Gilmer';font-weight:700;font-size:61.696px;fill:#1d1f25;">P<tspan x="1805.3px " y="624.405px ">e</tspan>rmis<tspan x="1970.74px " y="624.405px ">s</tspan>ions</text><text x="1855.88px" y="699.405px" style="font-family:'Gilmer-Bold', 'Gilmer';font-weight:700;font-size:61.696px;fill:#1d1f25;">polic<tspan x="2000.34px " y="699.405px ">y</tspan></text></g><g id="AWS-AIM"><text x="456.73px" y="248.992px" style="font-family:'Gilmer-Heavy', 'Gilmer';font-weight:800;font-size:71.978px;fill:#1d1f25;">A<tspan x="506.082px 577.244px " y="248.992px 248.992px ">WS</tspan> AIM</text></g><path id="Line-2" d="M225.93,1234.73l6.222,0.597l0.94,0.067l0.948,0.023l44.831,-0l0,12.5l-44.831,-0c-0.689,-0 -1.375,-0.022 -2.059,-0.066l-1.023,-0.081l-6.222,-0.597l1.194,-12.443Zm136.274,0.687l0,12.5l-54.166,-0l-0,-12.5l54.166,-0Zm83.334,-0l-0,12.5l-54.167,-0l0,-12.5l54.167,-0Zm83.333,-0l0,12.5l-54.167,-0l0,-12.5l54.167,-0Zm83.333,-0l0,12.5l-54.166,-0l-0,-12.5l54.166,-0Zm59.157,-0l-0,12.5l-29.99,-0l0,-12.5l29.99,-0Zm-456.778,-72l0,54.167l-12.5,-0l0,-54.167l12.5,0Zm0,-83.333l0,54.166l-12.5,0l0,-54.166l12.5,-0Zm0,-83.334l0,54.167l-12.5,0l0,-54.167l12.5,0Zm0,-83.333l0,54.167l-12.5,-0l0,-54.167l12.5,0Zm0,-83.333l0,54.166l-12.5,0l0,-54.166l12.5,-0Zm0,-83.334l0,54.167l-12.5,0l0,-54.167l12.5,0Zm0,-83.333l0,54.167l-12.5,-0l0,-54.167l12.5,0Zm375.116,-72.721l79.051,39.815l-79.282,39.352l0.095,-33.334l-35.387,-0.103l-6.25,-0.018l0.036,-12.5l6.25,0.018l35.388,0.103l0.099,-33.333Zm-355.566,32.296l34.664,0.101l-0.037,12.5l-6.25,-0.018l-28.413,-0.083c-3.073,-0.009 -6.032,0.691 -8.707,2.022l-0.99,0.529l-5.425,3.102l-6.205,-10.851l5.425,-3.103c4.815,-2.753 10.278,-4.216 15.938,-4.199Zm230.496,0.673l6.25,0.018l47.917,0.14l-0.037,12.5l-6.25,-0.018l-41.666,-0.122l-6.25,-0.018l0.036,-12.5Zm-83.333,-0.244l6.25,0.019l47.917,0.14l-0.037,12.5l-6.25,-0.019l-41.666,-0.121l-6.25,-0.019l0.036,-12.5Zm-83.333,-0.243l47.917,0.14l6.25,0.018l-0.037,12.5l-47.916,-0.14l-6.25,-0.018l0.036,-12.5Z" style="fill:#02acff;fill-rule:nonzero;"/><g id="Icon-Resource-Security-Identity-and-Compliance-Res_AWS-Identity-Access-Management_Permissions_48" serif:id="Icon-Resource/Security-Identity-and-Compliance/Res_AWS-Identity-Access-Management_Permissions_48"><path id="AWS-Identity-and-Access-Management_Permissions_Resource-Icon_light-bg" d="M1574.75,615.332l7.241,7.242l-35.84,35.84c-0.999,0.999 -2.31,1.501 -3.621,1.501c-1.311,-0 -2.622,-0.502 -3.621,-1.501l-17.925,-17.92l7.242,-7.242l14.304,14.3l32.22,-32.22Zm-0,-58.247l7.241,7.242l-35.84,35.84c-0.999,0.999 -2.31,1.501 -3.621,1.501c-1.311,-0 -2.622,-0.502 -3.621,-1.501l-17.925,-17.92l7.242,-7.242l14.304,14.299l32.22,-32.219Zm-1.716,132.694l-16.538,16.542l16.538,16.538l-7.242,7.241l-16.542,-16.537l-16.543,16.537l-7.242,-7.241l16.543,-16.538l-16.543,-16.542l7.242,-7.242l16.543,16.542l16.542,-16.542l7.242,7.242Zm98.784,54.339c-0,2.274 -1.849,4.123 -4.123,4.123l-151.761,-0c-2.279,-0 -4.128,-1.849 -4.128,-4.123l0,-196.564c0,-2.279 1.849,-4.128 4.128,-4.128l151.761,-0c2.274,-0 4.123,1.849 4.123,4.128l-0,196.564Zm-4.123,-210.935l-151.761,-0c-7.923,-0 -14.371,6.448 -14.371,14.371l-0,196.564c-0,7.918 6.448,14.366 14.371,14.366l151.761,-0c7.923,-0 14.366,-6.448 14.366,-14.366l-0,-196.564c-0,-7.923 -6.443,-14.371 -14.366,-14.371Z" style="fill:#bf0816;"/></g><path id="Line1" serif:id="Line" d="M1425,1078.39l2.083,301.545" style="fill:none;stroke:#343536;stroke-width:10.28px;stroke-linecap:square;"/><g id="Permissions-policy1" serif:id="Permissions-policy"><text x="1766.02px" y="1207.74px" style="font-family:'Gilmer-Bold', 'Gilmer';font-weight:700;font-size:61.696px;fill:#1d1f25;">P<tspan x="1805.3px " y="1207.74px ">e</tspan>rmis<tspan x="1970.74px " y="1207.74px ">s</tspan>ions</text><text x="1855.88px" y="1282.74px" style="font-family:'Gilmer-Bold', 'Gilmer';font-weight:700;font-size:61.696px;fill:#1d1f25;">polic<tspan x="2000.34px " y="1282.74px ">y</tspan></text></g><g id="Icon-Resource-Security-Identity-and-Compliance-Res_AWS-Identity-Access-Management_Permissions_481" serif:id="Icon-Resource/Security-Identity-and-Compliance/Res_AWS-Identity-Access-Management_Permissions_48"><path id="AWS-Identity-and-Access-Management_Permissions_Resource-Icon_light-bg1" serif:id="AWS-Identity-and-Access-Management_Permissions_Resource-Icon_light-bg" d="M1574.75,1198.66l7.241,7.242l-35.84,35.841c-0.999,0.998 -2.31,1.5 -3.621,1.5c-1.311,0 -2.622,-0.502 -3.621,-1.5l-17.925,-17.921l7.242,-7.241l14.304,14.299l32.22,-32.22Zm-0,-58.247l7.241,7.242l-35.84,35.841c-0.999,0.998 -2.31,1.5 -3.621,1.5c-1.311,0 -2.622,-0.502 -3.621,-1.5l-17.925,-17.921l7.242,-7.242l14.304,14.3l32.22,-32.22Zm-1.716,132.694l-16.538,16.542l16.538,16.538l-7.242,7.242l-16.542,-16.538l-16.543,16.538l-7.242,-7.242l16.543,-16.538l-16.543,-16.542l7.242,-7.242l16.543,16.543l16.542,-16.543l7.242,7.242Zm98.784,54.339c-0,2.274 -1.849,4.123 -4.123,4.123l-151.761,0c-2.279,0 -4.128,-1.849 -4.128,-4.123l0,-196.564c0,-2.279 1.849,-4.128 4.128,-4.128l151.761,0c2.274,0 4.123,1.849 4.123,4.128l-0,196.564Zm-4.123,-210.935l-151.761,0c-7.923,0 -14.371,6.448 -14.371,14.371l-0,196.564c-0,7.918 6.448,14.366 14.371,14.366l151.761,0c7.923,0 14.366,-6.448 14.366,-14.366l-0,-196.564c-0,-7.923 -6.443,-14.371 -14.366,-14.371Z" style="fill:#bf0816;"/></g><g id="Group-4"><circle id="Oval" cx="418.307" cy="934.687" r="74.643" style="fill:#00acff;fill-opacity:0.75;stroke:#00acff;stroke-width:10.28px;"/><g id="_5" serif:id="5"><g transform="matrix(0.999848,0.0174524,-0.0174524,0.999848,16.7974,-6.78997)"><text x="397.425px" y="958.999px" style="font-family:'Gilmer-Heavy', 'Gilmer';font-weight:800;font-size:71.978px;fill:#fff;">5</text></g></g></g><g id="Icon-Resource-Security-Identity-and-Compliance-Res_AWS-Identity-Access-Management_Role_482" serif:id="Icon-Resource/Security-Identity-and-Compliance/Res_AWS-Identity-Access-Management_Role_48"><path id="AWS-Identity-and-Access-Management_Role_Resource-Icon_light-bg2" serif:id="AWS-Identity-and-Access-Management_Role_Resource-Icon_light-bg" d="M396.264,294.693c-0.812,0.057 -1.63,0.12 -2.406,0.198c-2.719,0.224 -5.563,0.494 -8.438,0.797l-0.875,0.093c-9.192,0.948 -19.599,2.016 -24.552,1.339c-3.094,-0.443 -8.791,-2.917 -14.833,-5.537c-10.24,-4.437 -22.99,-9.968 -34.516,-10.854c-15.864,-1.219 -43.276,1.771 -60.953,10.057c-10.219,-0.458 -19.698,-3.208 -27.062,-7.75c-0.032,-1.416 -0.063,-2.833 -0.063,-3.38c0,-21.541 10.094,-41.745 27.708,-55.469c11.964,-6.994 25.75,-10.687 39.896,-10.687c31.881,-0 60.172,18.839 71.209,46.573l-4.235,-0c-4.239,-0 -7.791,3 -8.661,6.979c-0.719,-0.271 -1.375,-0.516 -2.146,-0.812c-10.568,-4.079 -25.068,-9.657 -41.828,-8.662c-24.505,1.438 -36.563,2.917 -46.057,5.625l2.859,10.021c8.687,-2.484 20.146,-3.854 43.807,-5.25c14.5,-0.823 27.797,4.26 37.469,7.984c2.057,0.797 3.917,1.49 5.682,2.12l0,1.068c0,4.89 3.985,8.875 8.875,8.875l18.995,-0c4.88,-0 8.859,-3.969 8.875,-8.844l1.844,-0.167c3.088,-0.276 5.927,-0.552 8.307,-0.786l1.099,-0.109l0,16.578Zm-178.562,8.687c-13.803,1.891 -24.698,0.203 -29.209,-2.583c2.735,-1.932 8.906,-4.636 13.25,-6.531c3.761,-1.641 7.568,-3.375 11.25,-5.23c6.011,4.579 13.453,8.011 21.693,10.058c-4.766,1.916 -10.667,3.427 -16.984,4.286Zm140.984,-25.776l15.911,0l0,-7.114l-15.911,-0l-0,7.114Zm-53.552,-84.896c43.583,0 80.187,32.787 85.578,75.48c-1.5,0.145 -3.083,0.296 -4.755,0.447l-0.964,0.084c-0.125,-4.781 -4.036,-8.646 -8.854,-8.646l-3.703,-0c-11.464,-33.734 -44.667,-56.99 -82.266,-56.99c-13.927,0 -27.552,3.188 -39.797,9.245c0.089,-0.073 0.162,-0.151 0.24,-0.219c15.318,-12.51 34.677,-19.401 54.521,-19.401Zm98.651,77.052c-0.755,-0.682 -1.646,-1.177 -2.594,-1.552c-5.448,-48.494 -46.765,-85.916 -96.057,-85.916c-22.235,-0 -43.938,7.724 -61.104,21.744c-22.672,18.459 -35.672,45.808 -35.672,75.032c-0,0.213 0.015,0.427 0.015,0.64c-3.474,1.745 -7.145,3.412 -10.796,5.011c-11.125,4.864 -19.162,8.375 -20.36,14.719c-0.302,1.609 -0.354,4.76 2.709,7.822c5.401,5.401 15.765,7.339 26.296,7.339c4.386,-0 8.792,-0.333 12.886,-0.896c6.974,-0.948 19.995,-3.505 28.833,-9.974c13.948,-10.109 45.485,-13.89 61.906,-12.614c9.787,0.755 21.641,5.895 31.172,10.026c7.271,3.161 13.021,5.651 17.532,6.291c6.203,0.849 16.333,-0.192 27.057,-1.291l0.901,-0.089c2.802,-0.302 5.562,-0.562 8.292,-0.786c1.119,-0.11 2.229,-0.188 3.708,-0.292c4.583,-0.323 8.172,-4.167 8.172,-8.75l-0,-19.943c-0,-2.489 -1.052,-4.864 -2.896,-6.521Z" style="fill:#bf0816;"/></g><path id="Path-10" d="M2458.33,0l0,1666.67" style="fill:none;stroke:#343536;stroke-width:12.5px;"/></g></g></g></svg>