<?xml version="1.0" encoding="UTF-8" standalone="no"?><!DOCTYPE svg PUBLIC "-//W3C//DTD SVG 1.1//EN" "http://www.w3.org/Graphics/SVG/1.1/DTD/svg11.dtd"><svg width="100%" height="100%" viewBox="0 0 2530 1667" version="1.1" xmlns="http://www.w3.org/2000/svg" xmlns:xlink="http://www.w3.org/1999/xlink" xml:space="preserve" xmlns:serif="http://www.serif.com/" style="fill-rule:evenodd;clip-rule:evenodd;"><g id="Basic-Layout"><g id="experiment_01"><g id="h12"><rect id="Rectangle" x="8.333" y="0" width="2500" height="1666.67" style="fill:none;"/><g id="HVN-Transit-Gateway"><text x="708.433px" y="895.833px" style="font-family:'Gilmer-Bold', 'Gilmer';font-weight:700;font-size:61.696px;fill:#1d1f25;">HVN T<tspan x="892.134px 914.141px " y="895.833px 895.833px ">ra</tspan>nsit <tspan x="1080.92px " y="895.833px ">G</tspan>at<tspan x="1193.89px 1229.04px 1278.07px 1317.35px " y="895.833px 895.833px 895.833px 895.833px ">eway</tspan> A<tspan x="1411.88px 1437.28px 1461.19px 1500.97px 1536.43px " y="895.833px 895.833px 895.833px 895.833px 895.833px ">ttach</tspan>ment</text></g><g id="Identity-Validation"><text x="945.286px" y="1270.83px" style="font-family:'Gilmer-Bold', 'Gilmer';font-weight:700;font-size:61.696px;fill:#1d1f25;">Identi<tspan x="1118.17px 1143.14px " y="1270.83px 1270.83px ">ty</tspan> V<tspan x="1233.35px " y="1270.83px ">a</tspan>lidat<tspan x="1410.49px " y="1270.83px ">i</tspan>on</text></g><g id="HUB"><text x="1086.17px" y="454.167px" style="font-family:'Gilmer-Heavy', 'Gilmer';font-weight:800;font-size:123.392px;fill:#1d1f25;">HU<tspan x="1266.17px " y="454.167px ">B</tspan></text></g><path id="Path-14" d="M2408.33,991.667l100,50l-100,50l0,-41.667l-2400,0l0,-16.667l2400,0l0,-41.666Z" style="fill:#4d27aa;fill-rule:nonzero;"/><path id="Path-16" d="M95.833,1335.42l0,79.166l-79.166,-39.583l79.166,-39.583Zm2412.5,33.333l0,12.5l-41.666,0l-0,-12.5l41.666,0Zm-83.333,0l0,12.5l-41.667,0l0,-12.5l41.667,0Zm-83.333,0l-0,12.5l-41.667,0l0,-12.5l41.667,0Zm-83.334,0l0,12.5l-41.666,0l-0,-12.5l41.666,0Zm-83.333,0l0,12.5l-41.667,0l0,-12.5l41.667,0Zm-83.333,0l-0,12.5l-41.667,0l0,-12.5l41.667,0Zm-83.334,0l0,12.5l-41.666,0l-0,-12.5l41.666,0Zm-83.333,0l0,12.5l-41.667,0l0,-12.5l41.667,0Zm-83.333,0l-0,12.5l-41.667,0l0,-12.5l41.667,0Zm-83.334,0l0,12.5l-41.666,0l-0,-12.5l41.666,0Zm-83.333,0l0,12.5l-41.667,0l0,-12.5l41.667,0Zm-83.333,0l-0,12.5l-41.667,0l0,-12.5l41.667,0Zm-83.334,0l0,12.5l-41.666,0l-0,-12.5l41.666,0Zm-83.333,0l0,12.5l-41.667,0l0,-12.5l41.667,0Zm-83.333,0l-0,12.5l-41.667,0l0,-12.5l41.667,0Zm-83.334,0l0,12.5l-41.666,0l-0,-12.5l41.666,0Zm-83.333,0l0,12.5l-41.667,0l0,-12.5l41.667,0Zm-83.333,0l-0,12.5l-41.667,0l0,-12.5l41.667,0Zm-83.334,0l0,12.5l-41.666,0l-0,-12.5l41.666,0Zm-83.333,0l0,12.5l-41.667,0l0,-12.5l41.667,0Zm-83.333,0l-0,12.5l-41.667,0l0,-12.5l41.667,0Zm-83.334,0l0,12.5l-41.666,0l-0,-12.5l41.666,0Zm-83.333,0l0,12.5l-41.667,0l0,-12.5l41.667,0Zm-83.333,0l-0,12.5l-41.667,0l0,-12.5l41.667,0Zm-83.334,0l0,12.5l-41.666,0l-0,-12.5l41.666,0Zm-83.333,0l0,12.5l-41.667,0l0,-12.5l41.667,0Zm-83.333,0l-0,12.5l-41.667,0l0,-12.5l41.667,0Zm-83.334,0l0,12.5l-41.666,0l-0,-12.5l41.666,0Zm-83.333,0l0,12.5l-41.667,0l0,-12.5l41.667,0Z" style="fill:#02acff;fill-rule:nonzero;"/><g id="Group-4"><circle id="Oval" cx="99.832" cy="878.591" r="76.689" style="fill:#00acff;fill-opacity:0.75;stroke:#00acff;stroke-width:10.28px;"/><g id="_4" serif:id="4"><g transform="matrix(0.999848,0.0174524,-0.0174524,0.999848,15.778,-1.22041)"><text x="77.812px" y="903.381px" style="font-family:'Gilmer-Heavy', 'Gilmer';font-weight:800;font-size:71.978px;fill:#fff;">4</text></g></g></g></g></g></g></svg>