<?xml version="1.0" encoding="UTF-8" standalone="no"?><!DOCTYPE svg PUBLIC "-//W3C//DTD SVG 1.1//EN" "http://www.w3.org/Graphics/SVG/1.1/DTD/svg11.dtd"><svg width="100%" height="100%" viewBox="0 0 2500 1667" version="1.1" xmlns="http://www.w3.org/2000/svg" xmlns:xlink="http://www.w3.org/1999/xlink" xml:space="preserve" xmlns:serif="http://www.serif.com/" style="fill-rule:evenodd;clip-rule:evenodd;"><g id="h1"><path id="Rectangle" d="M2074.03,447.515c0,-14.188 -11.518,-25.707 -25.706,-25.707l-1604.97,-0c-14.188,-0 -25.707,11.519 -25.707,25.707l0,854.97c0,14.188 11.519,25.707 25.707,25.707l1604.97,0c14.188,0 25.706,-11.519 25.706,-25.707l0,-854.97Z" style="fill:#fff;stroke:#343536;stroke-width:10.28px;"/><path id="Path-3" d="M41.667,1666.67l-0,-1500c-0,-46.024 37.309,-83.334 83.333,-83.334l41.667,0" style="fill:none;stroke:#343536;stroke-width:12.5px;"/><path id="Rectangle1" serif:id="Rectangle" d="M1949.03,697.515c0,-14.188 -11.518,-25.707 -25.706,-25.707l-1354.97,-0c-14.188,-0 -25.707,11.519 -25.707,25.707l0,479.97c0,14.188 11.519,25.707 25.707,25.707l1354.97,0c14.188,0 25.706,-11.519 25.706,-25.707l0,-479.97Z" style="fill:none;stroke:#343536;stroke-width:10.28px;"/><g id="Icon-Resource-Security-Identity-and-Compliance-Res_AWS-Identity-Access-Management_Role_48" serif:id="Icon-Resource/Security-Identity-and-Compliance/Res_AWS-Identity-Access-Management_Role_48"><path id="AWS-Identity-and-Access-Management_Role_Resource-Icon_light-bg" d="M1174.41,969.844c-0.854,0.06 -1.712,0.126 -2.527,0.208c-2.855,0.235 -5.841,0.519 -8.859,0.837l-0.919,0.098c-9.652,0.995 -20.579,2.116 -25.78,1.405c-3.248,-0.464 -9.231,-3.062 -15.575,-5.813c-10.751,-4.659 -24.139,-10.467 -36.241,-11.397c-16.658,-1.279 -45.44,1.86 -64.001,10.56c-10.73,-0.481 -20.683,-3.368 -28.416,-8.137c-0.032,-1.488 -0.065,-2.975 -0.065,-3.549c-0,-22.619 10.598,-43.832 29.094,-58.242c12.561,-7.345 27.037,-11.222 41.89,-11.222c33.474,-0 63.181,19.78 74.769,48.901l-4.446,0c-4.452,0 -8.181,3.15 -9.095,7.328c-0.754,-0.284 -1.443,-0.541 -2.253,-0.853c-11.096,-4.282 -26.321,-10.139 -43.919,-9.094c-25.731,1.509 -38.391,3.062 -48.361,5.906l3.003,10.522c9.122,-2.609 21.153,-4.047 45.997,-5.513c15.225,-0.864 29.187,4.474 39.343,8.384c2.16,0.837 4.112,1.564 5.966,2.226l0,1.121c0,5.135 4.184,9.319 9.319,9.319l19.944,-0c5.125,-0 9.303,-4.168 9.319,-9.286l1.936,-0.175c3.243,-0.29 6.223,-0.58 8.723,-0.826l1.154,-0.115l-0,17.407Zm-187.491,9.122c-14.492,1.985 -25.933,0.213 -30.669,-2.713c2.871,-2.029 9.352,-4.867 13.913,-6.857c3.948,-1.723 7.946,-3.544 11.812,-5.491c6.311,4.807 14.126,8.411 22.778,10.56c-5.004,2.013 -11.2,3.599 -17.834,4.501Zm148.034,-27.065l16.707,0l-0,-7.47l-16.707,-0l-0,7.47Zm-56.23,-89.141c45.762,0 84.197,34.426 89.857,79.254c-1.575,0.153 -3.238,0.311 -4.993,0.47l-1.012,0.087c-0.131,-5.02 -4.238,-9.078 -9.297,-9.078l-3.888,0c-12.037,-35.421 -46.9,-59.839 -86.379,-59.839c-14.623,0 -28.93,3.347 -41.787,9.707c0.093,-0.076 0.17,-0.158 0.252,-0.229c16.084,-13.136 36.411,-20.372 57.247,-20.372Zm103.583,80.905c-0.792,-0.716 -1.728,-1.236 -2.723,-1.63c-5.72,-50.919 -49.104,-90.212 -100.86,-90.212c-23.346,-0 -46.134,8.11 -64.159,22.832c-23.806,19.381 -37.456,48.098 -37.456,78.783c0,0.224 0.016,0.448 0.016,0.672c-3.647,1.832 -7.503,3.582 -11.336,5.261c-11.682,5.108 -20.12,8.794 -21.378,15.455c-0.317,1.69 -0.371,4.998 2.844,8.214c5.671,5.671 16.554,7.706 27.612,7.706c4.605,-0 9.231,-0.35 13.53,-0.941c7.322,-0.995 20.994,-3.681 30.275,-10.473c14.645,-10.615 47.758,-14.585 65.001,-13.245c10.276,0.793 22.723,6.191 32.731,10.527c7.634,3.32 13.671,5.934 18.407,6.607c6.514,0.891 17.15,-0.203 28.411,-1.357l0.946,-0.093c2.942,-0.317 5.84,-0.59 8.706,-0.825c1.176,-0.115 2.341,-0.197 3.894,-0.307c4.812,-0.339 8.58,-4.375 8.58,-9.187l0,-20.94c0,-2.614 -1.105,-5.108 -3.041,-6.847Z" style="fill:#bf0816;"/></g><path id="Line" d="M1247.92,770.833l-0,312.5" style="fill:none;stroke:#343536;stroke-width:10.28px;stroke-linecap:square;"/><g id="Lambda-Execution-Rol"><text x="620.591px" y="884.587px" style="font-family:'Gilmer-Bold', 'Gilmer';font-weight:700;font-size:61.696px;fill:#1d1f25;">L<tspan x="655.246px " y="884.587px ">a</tspan>mbda</text><text x="596.776px" y="959.587px" style="font-family:'Gilmer-Bold', 'Gilmer';font-weight:700;font-size:61.696px;fill:#1d1f25;">Ex<tspan x="667.752px " y="959.587px ">e</tspan>cutio<tspan x="857.665px " y="959.587px ">n</tspan></text><text x="680.004px" y="1034.59px" style="font-family:'Gilmer-Bold', 'Gilmer';font-weight:700;font-size:61.696px;fill:#1d1f25;">R<tspan x="721.63px " y="1034.59px ">o</tspan>le</text></g><g id="LAMBDA-EXTENSION"><text x="543.857px" y="582.326px" style="font-family:'Gilmer-Heavy', 'Gilmer';font-weight:800;font-size:71.978px;fill:#1d1f25;">L<tspan x="585.94px " y="582.326px ">A</tspan>MBD<tspan x="802.207px " y="582.326px ">A</tspan> EXT<tspan x="1015.5px " y="582.326px ">E</tspan>NSIO<tspan x="1240.67px " y="582.326px ">N</tspan></text></g><g id="bootstrap-instructio"><text x="1597.49px" y="922.087px" style="font-family:'Gilmer-Bold', 'Gilmer';font-weight:700;font-size:61.696px;fill:#1d1f25;">boo<tspan x="1711.57px 1736.78px 1768.17px 1793.57px 1815.58px " y="922.087px 922.087px 922.087px 922.087px 922.087px ">tstra</tspan>p</text><text x="1567.32px" y="997.087px" style="font-family:'Gilmer-Bold', 'Gilmer';font-weight:700;font-size:61.696px;fill:#1d1f25;">ins<tspan x="1653.14px " y="997.087px ">t</tspan>ru<tspan x="1740.39px " y="997.087px ">c</tspan>tions</text></g><g id="Code"><g id="Union_153"><path id="Path" d="M1416.49,854.427c-3.712,-1.044 -7.517,1.14 -8.538,4.937l-41.762,156.641c-1.02,3.798 1.114,7.69 4.826,8.734c3.712,1.045 7.517,-1.139 8.538,-4.936l41.761,-156.642c1.021,-3.797 -1.113,-7.689 -4.825,-8.734Z" style="fill:#000001;fill-rule:nonzero;"/><path id="Path1" serif:id="Path" d="M1432.82,884.806c2.599,-2.848 7.053,-2.943 9.837,-0.19l51.042,49.841c1.392,1.329 2.134,3.228 2.134,5.126c0,1.899 -0.742,3.798 -2.134,5.127l-51.042,49.84c-2.784,2.753 -7.238,2.658 -9.837,-0.19c-2.691,-2.848 -2.598,-7.404 0.186,-10.063l45.752,-44.714l-45.752,-44.714c-2.784,-2.658 -2.877,-7.215 -0.186,-10.063Z" style="fill:#000001;fill-rule:nonzero;"/><path id="Path2" serif:id="Path" d="M1354.49,894.869c2.784,-2.658 2.877,-7.215 0.186,-10.063c-2.599,-2.848 -7.053,-2.943 -9.837,-0.19l-51.042,49.841c-1.392,1.329 -2.134,3.228 -2.134,5.126c-0,1.899 0.742,3.798 2.134,5.127l51.042,49.84c2.784,2.753 7.238,2.658 9.837,-0.19c2.691,-2.848 2.598,-7.404 -0.186,-10.063l-45.752,-44.714l45.752,-44.714Z" style="fill:#000001;fill-rule:nonzero;"/></g></g><g id="Secrets-request"><text x="925.631px" y="1489.83px" style="font-family:'Gilmer-Bold', 'Gilmer';font-weight:700;font-size:61.696px;fill:#1d1f25;">Secr<tspan x="1061.29px 1097.05px 1122.27px " y="1489.83px 1489.83px 1489.83px ">ets</tspan></text><text x="924.891px" y="1564.83px" style="font-family:'Gilmer-Bold', 'Gilmer';font-weight:700;font-size:61.696px;fill:#1d1f25;">r<tspan x="946.898px " y="1564.83px ">e</tspan>ques<tspan x="1129.61px " y="1564.83px ">t</tspan></text></g><g id="Account-Label"><g id="ACCOUNT-No-1---US-Ea"><text x="583.333px" y="112.5px" style="font-family:'Gilmer-Heavy', 'Gilmer';font-weight:800;font-size:71.978px;fill:#1d1f25;">A<tspan x="633.765px 689.02px 744.274px " y="112.5px 112.5px 112.5px ">CCO</tspan>UNT <tspan x="971.458px " y="112.5px ">N</tspan>o 1 <tspan x="1134.72px " y="112.5px ">-</tspan> U<tspan x="1238.3px " y="112.5px ">S</tspan> E<tspan x="1348.21px 1394.61px 1431.58px " y="112.5px 112.5px 112.5px ">ast</tspan></text></g><g id="Group_3"><path id="Vector_10" d="M276.305,97.662c-0,3.172 0.339,5.737 0.929,7.631c0.689,1.883 1.543,3.943 2.735,6.167c0.415,0.683 0.59,1.377 0.59,1.971c0,0.859 -0.514,1.718 -1.618,2.577l-5.36,3.601c-0.766,0.517 -1.531,0.771 -2.22,0.771c-0.843,-0 -1.696,-0.43 -2.549,-1.201c-1.192,-1.288 -2.209,-2.653 -3.063,-4.03c-0.853,-1.453 -1.706,-3.083 -2.636,-5.054c-6.639,7.884 -14.985,11.826 -25.037,11.826c-7.142,0 -12.852,-2.059 -17.02,-6.177c-4.167,-4.108 -6.3,-9.603 -6.3,-16.463c0,-7.279 2.56,-13.203 7.744,-17.663c5.196,-4.449 12.087,-6.684 20.859,-6.684c2.899,-0 5.874,0.253 9.024,0.682c3.15,0.43 6.388,1.124 9.79,1.894l-0,-6.265c-0,-6.508 -1.368,-11.056 -4.004,-13.721c-2.723,-2.654 -7.317,-3.942 -13.869,-3.942c-2.986,-0 -6.049,0.341 -9.199,1.123c-3.15,0.771 -6.213,1.707 -9.188,2.907c-1.367,0.606 -2.385,0.947 -2.986,1.112c-0.591,0.176 -1.017,0.264 -1.356,0.264c-1.193,0 -1.794,-0.859 -1.794,-2.664l-0,-4.196c-0,-1.377 0.175,-2.401 0.601,-3.006c0.427,-0.595 1.193,-1.201 2.385,-1.795c2.975,-1.542 6.552,-2.83 10.719,-3.854c4.178,-1.124 8.597,-1.63 13.279,-1.63c10.129,-0 17.545,2.312 22.303,6.937c4.681,4.636 7.066,11.662 7.066,21.099l-0,27.783l0.175,0Zm-34.565,13.027c2.811,0 5.71,-0.517 8.773,-1.541c3.062,-1.035 5.786,-2.919 8.083,-5.484c1.367,-1.63 2.384,-3.436 2.898,-5.495c0.504,-2.059 0.854,-4.537 0.854,-7.455l-0,-3.601c-2.472,-0.606 -5.108,-1.112 -7.832,-1.465c-2.735,-0.341 -5.371,-0.506 -8.007,-0.506c-5.698,-0 -9.877,1.112 -12.688,3.424c-2.8,2.313 -4.167,5.572 -4.167,9.867c-0,4.03 1.017,7.026 3.15,9.085c2.045,2.147 5.02,3.171 8.936,3.171Zm68.363,9.261c-1.542,0 -2.559,-0.253 -3.238,-0.859c-0.678,-0.517 -1.279,-1.717 -1.793,-3.347l-20.006,-66.27c-0.503,-1.718 -0.766,-2.83 -0.766,-3.436c0,-1.365 0.689,-2.147 2.046,-2.147l8.345,0c1.619,0 2.724,0.264 3.315,0.859c0.689,0.518 1.192,1.718 1.706,3.348l14.307,56.766l13.279,-56.766c0.426,-1.718 0.929,-2.83 1.619,-3.348c0.678,-0.507 1.87,-0.859 3.401,-0.859l6.804,0c1.619,0 2.723,0.264 3.412,0.859c0.679,0.518 1.269,1.718 1.619,3.348l13.443,57.449l14.734,-57.449c0.503,-1.718 1.104,-2.83 1.695,-3.348c0.689,-0.507 1.794,-0.859 3.325,-0.859l7.919,0c1.357,0 2.122,0.694 2.122,2.147c0,0.43 -0.087,0.859 -0.164,1.377c-0.087,0.506 -0.262,1.2 -0.601,2.136l-20.509,66.281c-0.514,1.718 -1.116,2.83 -1.794,3.347c-0.678,0.518 -1.783,0.859 -3.238,0.859l-7.317,0c-1.619,0 -2.724,-0.264 -3.402,-0.859c-0.689,-0.605 -1.28,-1.717 -1.619,-3.435l-13.191,-55.302l-13.115,55.225c-0.426,1.707 -0.94,2.83 -1.619,3.424c-0.678,0.606 -1.87,0.859 -3.401,0.859l-7.318,0Zm109.381,2.313c-4.419,-0 -8.849,-0.507 -13.104,-1.542c-4.255,-1.024 -7.58,-2.147 -9.79,-3.425c-1.367,-0.77 -2.297,-1.629 -2.647,-2.4c-0.339,-0.771 -0.503,-1.63 -0.503,-2.401l0,-4.383c0,-1.794 0.678,-2.653 1.958,-2.653c0.503,-0 1.017,0.088 1.531,0.253c0.514,0.176 1.28,0.517 2.122,0.859c2.899,1.288 6.049,2.323 9.363,3.006c3.413,0.683 6.727,1.024 10.14,1.024c5.36,0 9.527,-0.936 12.426,-2.83c2.887,-1.883 4.429,-4.625 4.429,-8.138c0,-2.4 -0.765,-4.371 -2.307,-6.001c-1.532,-1.63 -4.419,-3.095 -8.598,-4.46l-12.338,-3.865c-6.213,-1.971 -10.807,-4.889 -13.618,-8.744c-2.811,-3.777 -4.255,-7.972 -4.255,-12.432c0,-3.601 0.766,-6.772 2.297,-9.514c1.532,-2.742 3.577,-5.143 6.126,-7.037c2.559,-1.971 5.447,-3.425 8.848,-4.46c3.413,-1.024 6.99,-1.453 10.731,-1.453c1.87,-0 3.828,0.088 5.698,0.341c1.958,0.264 3.752,0.606 5.535,0.947c1.706,0.43 3.325,0.859 4.857,1.366c1.531,0.517 2.723,1.035 3.576,1.552c1.193,0.683 2.046,1.366 2.549,2.137c0.514,0.682 0.766,1.629 0.766,2.83l-0,4.03c-0,1.806 -0.679,2.742 -1.958,2.742c-0.679,-0 -1.783,-0.341 -3.227,-1.024c-4.857,-2.236 -10.304,-3.348 -16.352,-3.348c-4.846,0 -8.674,0.771 -11.321,2.401c-2.636,1.63 -4.004,4.118 -4.004,7.631c0,2.401 0.853,4.46 2.56,6.09c1.706,1.629 4.856,3.259 9.363,4.713l12.086,3.865c6.137,1.971 10.556,4.713 13.192,8.226c2.647,3.513 3.915,7.543 3.915,12.003c0,3.689 -0.765,7.036 -2.209,9.943c-1.531,2.919 -3.577,5.495 -6.213,7.555c-2.636,2.136 -5.786,3.689 -9.45,4.801c-3.829,1.2 -7.832,1.795 -12.174,1.795Z" style="fill:#252f3e;fill-rule:nonzero;"/><g id="Group_4"><path id="Vector_11" d="M435.574,163.932c-28.013,20.845 -68.702,31.901 -103.693,31.901c-49.025,0 -93.214,-18.268 -126.575,-48.617c-2.647,-2.401 -0.263,-5.66 2.887,-3.777c36.096,21.098 80.614,33.872 126.674,33.872c31.064,0 65.202,-6.519 96.616,-19.887c4.681,-2.148 8.684,3.083 4.091,6.508Z" style="fill:#f90;"/><path id="Vector_12" d="M447.233,150.563c-3.576,-4.636 -23.669,-2.235 -32.77,-1.112c-2.734,0.342 -3.15,-2.059 -0.689,-3.865c16.002,-11.32 42.308,-8.061 45.371,-4.284c3.074,3.855 -0.842,30.349 -15.827,43.046c-2.297,1.971 -4.518,0.936 -3.49,-1.63c3.402,-8.49 10.982,-27.618 7.405,-32.155Z" style="fill:#f90;"/></g></g></g><g id="Group-4"><ellipse id="Oval" cx="575.372" cy="1511.78" rx="74.398" ry="74.647" style="fill:#00acff;fill-opacity:0.75;stroke:#00acff;stroke-width:10.28px;"/><g id="_1" serif:id="1"><g transform="matrix(0.999848,0.0174524,-0.0174524,0.999848,26.9051,-9.56565)"><text x="561.51px" y="1536.73px" style="font-family:'Gilmer-Heavy', 'Gilmer';font-weight:800;font-size:71.978px;fill:#fff;">1</text></g></g></g><path id="Line-2" d="M834.308,1382.36l-0.004,192.174l28.903,0.004l-34.04,66.667l-34.04,-66.667l28.898,-0.004l0,-192.174l10.283,-0Z" style="fill:#343536;fill-rule:nonzero;"/><path id="Line-21" serif:id="Line-2" d="M2428.7,918.043l66.666,34.04l-66.666,34.04l-0.004,-28.902l-317.175,0.004l0,-10.283l317.175,-0l0.004,-28.899Z" style="fill:#343536;fill-rule:nonzero;"/><path id="Path-7" d="M1500,83.333l1000,0" style="fill:none;stroke:#343536;stroke-width:12.55px;stroke-linecap:square;"/><g id="Secrets-injection"><text x="2173.55px" y="645.833px" style="font-family:'Gilmer-Bold', 'Gilmer';font-weight:700;font-size:61.696px;fill:#1d1f25;">Secr<tspan x="2309.21px 2344.97px 2370.19px " y="645.833px 645.833px 645.833px ">ets</tspan></text><text x="2157.66px" y="720.833px" style="font-family:'Gilmer-Bold', 'Gilmer';font-weight:700;font-size:61.696px;fill:#1d1f25;">inject<tspan x="2326.23px " y="720.833px ">i</tspan>on</text></g><g id="Group-41" serif:id="Group-4"><circle id="Oval1" serif:id="Oval" cx="2290.5" cy="1123.86" r="79.784" style="fill:#fff;"/><circle id="Oval2" serif:id="Oval" cx="2290.5" cy="1123.86" r="74.643" style="fill:#00acff;fill-opacity:0.75;stroke:#00acff;stroke-width:10.28px;"/><g id="_7" serif:id="7"><g transform="matrix(0.999848,0.0174524,-0.0174524,0.999848,20.3935,-39.443)"><text x="2270.06px" y="1148.71px" style="font-family:'Gilmer-Heavy', 'Gilmer';font-weight:800;font-size:71.978px;fill:#fff;">7</text></g></g></g></g></svg>