<?xml version="1.0" encoding="UTF-8" standalone="no"?><!DOCTYPE svg PUBLIC "-//W3C//DTD SVG 1.1//EN" "http://www.w3.org/Graphics/SVG/1.1/DTD/svg11.dtd">
<svg width="100%" height="100%" viewBox="0 0 2500 1667" version="1.1"
    xmlns="http://www.w3.org/2000/svg"
    xmlns:xlink="http://www.w3.org/1999/xlink" xml:space="preserve"
    xmlns:serif="http://www.serif.com/" style="fill-rule:evenodd;clip-rule:evenodd;">
    <g id="Basic-Layout">
        <g id="experiment_01">
            <g id="h10">
                <rect id="Rectangle" x="0" y="0" width="2500" height="1666.67" style="fill:none;"/>
                <g id="VPC-10.0.0.0-16" serif:id="VPC-10.0.0.0/16">
                    <text x="2178px" y="950px" style="font-family:'Gilmer-Heavy', 'Gilmer';font-weight:800;font-size:72px;fill:#1d1f25;">VPC</text>
                    <text x="1952.42px" y="1037.5px" style="font-family:'Gilmer-Heavy', 'Gilmer';font-weight:800;font-size:72px;fill:#1d1f25;">10.0.0.0/16</text>
                </g>
                <g id="Configure-the-Vault">
                    <text x="759.57px" y="112.5px" style="font-family:'Gilmer-Heavy', 'Gilmer';font-weight:800;font-size:72px;fill:#1d1f25;">Configure the Vault</text>
                    <text x="837.127px" y="200px" style="font-family:'Gilmer-Heavy', 'Gilmer';font-weight:800;font-size:72px;fill:#1d1f25;">Authentication</text>
                    <text x="800.058px" y="287.5px" style="font-family:'Gilmer-Heavy', 'Gilmer';font-weight:800;font-size:72px;fill:#1d1f25;">Engine to use the</text>
                    <text x="830.145px" y="375px" style="font-family:'Gilmer-Heavy', 'Gilmer';font-weight:800;font-size:72px;fill:#1d1f25;">AWS AIM API to</text>
                    <text x="745.21px" y="462.5px" style="font-family:'Gilmer-Heavy', 'Gilmer';font-weight:800;font-size:72px;fill:#1d1f25;">validate the identity</text>
                    <text x="718.614px" y="550px" style="font-family:'Gilmer-Heavy', 'Gilmer';font-weight:800;font-size:72px;fill:#1d1f25;">of secrets consumers.</text>
                </g>
                <path id="Path-8" d="M0,1250l2375,0c46.024,0 83.333,-37.31 83.333,-83.333l0,-1166.67" style="fill:none;stroke:#343536;stroke-width:12.5px;"/>
                <path id="Path-12" d="M0,1583.33l2500,0" style="fill:none;stroke:#4d27aa;stroke-width:12.5px;"/>
                <path id="Path-18" d="M2445.83,658.333l0,16.667l-41.666,0l-0,-16.667l41.666,0Zm-83.333,0l0,16.667l-41.667,0l0,-16.667l41.667,0Zm-83.333,0l-0,16.667l-41.667,0l0,-16.667l41.667,0Zm-83.334,0l0,16.667l-41.666,0l-0,-16.667l41.666,0Zm-83.333,0l0,16.667l-41.667,0l0,-16.667l41.667,0Zm-83.333,0l-0,16.667l-41.667,0l0,-16.667l41.667,0Zm-83.334,0l0,16.667l-41.666,0l-0,-16.667l41.666,0Zm-83.333,0l0,16.667l-41.667,0l0,-16.667l41.667,0Zm-83.333,0l-0,16.667l-41.667,0l0,-16.667l41.667,0Zm-83.334,0l0,16.667l-41.666,0l-0,-16.667l41.666,0Zm-104.166,-4.166l-0,4.166l20.833,0l0,16.667l-37.5,0l0,-20.833l16.667,-0Zm-0,-83.334l-0,41.667l-16.667,-0l0,-41.667l16.667,0Zm-0,-83.333l-0,41.667l-16.667,-0l0,-41.667l16.667,-0Zm-0,-83.333l-0,41.666l-16.667,0l0,-41.666l16.667,-0Zm-0,-83.334l-0,41.667l-16.667,-0l0,-41.667l16.667,0Zm-0,-83.333l-0,41.667l-16.667,-0l0,-41.667l16.667,-0Zm-0,-83.333l-0,41.666l-16.667,0l0,-41.666l16.667,-0Zm-8.334,-145.834l50,100l-41.666,0l-0,4.167l-16.667,-0l0,-4.167l-41.667,0l50,-100Z" style="fill:#02acff;fill-rule:nonzero;"/>
            </g>
        </g>
    </g>
</svg>