<?xml version="1.0" encoding="UTF-8" standalone="no"?><!DOCTYPE svg PUBLIC "-//W3C//DTD SVG 1.1//EN" "http://www.w3.org/Graphics/SVG/1.1/DTD/svg11.dtd"><svg width="100%" height="100%" viewBox="0 0 2500 1667" version="1.1" xmlns="http://www.w3.org/2000/svg" xmlns:xlink="http://www.w3.org/1999/xlink" xml:space="preserve" xmlns:serif="http://www.serif.com/" style="fill-rule:evenodd;clip-rule:evenodd;"><g id="Basic-Layout"><g id="experiment_01"><g id="h10"><rect id="Rectangle" x="0" y="0" width="2500" height="1666.67" style="fill:none;"/><g id="VPC-10.0.0.0-16" serif:id="VPC-10.0.0.0/16"><text x="2178px" y="950px" style="font-family:'Gilmer-Heavy', 'Gilmer';font-weight:800;font-size:71.978px;fill:#1d1f25;">VPC</text><text x="1952.42px" y="1037.5px" style="font-family:'Gilmer-Heavy', 'Gilmer';font-weight:800;font-size:71.978px;fill:#1d1f25;">10<tspan x="2030.18px 2048.08px 2093.76px 2111.66px 2157.34px 2175.24px 2219.48px 2259.69px " y="1037.5px 1037.5px 1037.5px 1037.5px 1037.5px 1037.5px 1037.5px 1037.5px ">.0.0.0/1</tspan>6</text></g><g id="Configure-the-Vault"><text x="759.57px" y="112.5px" style="font-family:'Gilmer-Heavy', 'Gilmer';font-weight:800;font-size:71.978px;fill:#1d1f25;">C<tspan x="814.609px " y="112.5px ">o</tspan>nï¬gu<tspan x="1041.43px 1068.4px " y="112.5px 112.5px ">re</tspan> t<tspan x="1157.87px " y="112.5px ">h</tspan>e V<tspan x="1309.64px " y="112.5px ">a</tspan>ult</text><text x="837.127px" y="200px" style="font-family:'Gilmer-Heavy', 'Gilmer';font-weight:800;font-size:71.978px;fill:#1d1f25;">A<tspan x="889.358px 934.32px 963.59px " y="200px 200px 200px ">uth</tspan>enti<tspan x="1146.22px " y="200px ">c</tspan>atio<tspan x="1327.91px " y="200px ">n</tspan></text><text x="800.058px" y="287.5px" style="font-family:'Gilmer-Heavy', 'Gilmer';font-weight:800;font-size:71.978px;fill:#1d1f25;">Engin<tspan x="1001.11px " y="287.5px ">e</tspan> t<tspan x="1089.64px " y="287.5px ">o</tspan> us<tspan x="1232.93px " y="287.5px ">e</tspan> t<tspan x="1322.39px " y="287.5px ">h</tspan>e</text><text x="830.145px" y="375px" style="font-family:'Gilmer-Heavy', 'Gilmer';font-weight:800;font-size:71.978px;fill:#1d1f25;">A<tspan x="879.497px 950.659px " y="375px 375px ">WS</tspan> AIM<tspan x="1151.93px " y="375px "> </tspan>API <tspan x="1307.78px 1336.12px " y="375px 375px ">to</tspan></text><text x="745.21px" y="462.5px" style="font-family:'Gilmer-Heavy', 'Gilmer';font-weight:800;font-size:71.978px;fill:#1d1f25;">v<tspan x="786.573px " y="462.5px ">a</tspan>lida<tspan x="965.891px 994.226px " y="462.5px 462.5px ">te</tspan> t<tspan x="1083.69px " y="462.5px ">h</tspan>e id<tspan x="1255.24px " y="462.5px ">e</tspan>ntit<tspan x="1422.17px " y="462.5px ">y</tspan></text><text x="718.614px" y="550px" style="font-family:'Gilmer-Heavy', 'Gilmer';font-weight:800;font-size:71.978px;fill:#1d1f25;">o<tspan x="761.633px " y="550px ">f</tspan> s<tspan x="846.205px " y="550px ">e</tspan>cr<tspan x="957.912px 999.779px " y="550px 550px ">et</tspan>s co<tspan x="1170.03px 1214.99px 1251.96px " y="550px 550px 550px ">nsu</tspan>mers<tspan x="1472.88px " y="550px ">.</tspan></text></g><path id="Path-8" d="M0,1250l2375,0c46.024,0 83.333,-37.31 83.333,-83.333l0,-1166.67" style="fill:none;stroke:#343536;stroke-width:12.5px;"/><path id="Path-12" d="M0,1583.33l2500,0" style="fill:none;stroke:#4d27aa;stroke-width:12.5px;"/><path id="Path-18" d="M2445.83,658.333l0,16.667l-41.666,0l-0,-16.667l41.666,0Zm-83.333,0l0,16.667l-41.667,0l0,-16.667l41.667,0Zm-83.333,0l-0,16.667l-41.667,0l0,-16.667l41.667,0Zm-83.334,0l0,16.667l-41.666,0l-0,-16.667l41.666,0Zm-83.333,0l0,16.667l-41.667,0l0,-16.667l41.667,0Zm-83.333,0l-0,16.667l-41.667,0l0,-16.667l41.667,0Zm-83.334,0l0,16.667l-41.666,0l-0,-16.667l41.666,0Zm-83.333,0l0,16.667l-41.667,0l0,-16.667l41.667,0Zm-83.333,0l-0,16.667l-41.667,0l0,-16.667l41.667,0Zm-83.334,0l0,16.667l-41.666,0l-0,-16.667l41.666,0Zm-104.166,-4.166l-0,4.166l20.833,0l0,16.667l-37.5,0l0,-20.833l16.667,-0Zm-0,-83.334l-0,41.667l-16.667,-0l0,-41.667l16.667,0Zm-0,-83.333l-0,41.667l-16.667,-0l0,-41.667l16.667,-0Zm-0,-83.333l-0,41.666l-16.667,0l0,-41.666l16.667,-0Zm-0,-83.334l-0,41.667l-16.667,-0l0,-41.667l16.667,0Zm-0,-83.333l-0,41.667l-16.667,-0l0,-41.667l16.667,-0Zm-0,-83.333l-0,41.666l-16.667,0l0,-41.666l16.667,-0Zm-8.334,-145.834l50,100l-41.666,0l-0,4.167l-16.667,-0l0,-4.167l-41.667,0l50,-100Z" style="fill:#02acff;fill-rule:nonzero;"/></g></g></g></svg>