<?xml version="1.0" encoding="UTF-8" standalone="no"?><!DOCTYPE svg PUBLIC "-//W3C//DTD SVG 1.1//EN" "http://www.w3.org/Graphics/SVG/1.1/DTD/svg11.dtd"><svg width="100%" height="100%" viewBox="0 0 2500 1667" version="1.1" xmlns="http://www.w3.org/2000/svg" xmlns:xlink="http://www.w3.org/1999/xlink" xml:space="preserve" xmlns:serif="http://www.serif.com/" style="fill-rule:evenodd;clip-rule:evenodd;"><g id="h8"><path id="Rectangle" d="M2286.53,280.848c0,-14.188 -11.518,-25.707 -25.706,-25.707l-1604.97,0c-14.188,0 -25.707,11.519 -25.707,25.707l0,1104.97c0,14.188 11.519,25.706 25.707,25.706l1604.97,0c14.188,0 25.706,-11.518 25.706,-25.706l0,-1104.97Z" style="fill:#fff;stroke:#343536;stroke-width:10.28px;"/><g id="TRANSIT-GATEWAY-LB"><text x="998.921px" y="415.659px" style="font-family:'Gilmer-Heavy', 'Gilmer';font-weight:800;font-size:71.958px;fill:#1d1f25;">TR<tspan x="1095.37px " y="415.659px ">A</tspan>NSIT<tspan x="1316.37px 1333.62px 1388.57px 1435.39px " y="415.659px 415.659px 415.659px 415.659px "> GAT</tspan>EW<tspan x="1595.64px 1642.82px " y="415.659px 415.659px ">AY</tspan> LB</text></g><g id="Account-Label"><g id="HUB-ACCOUNT"><text x="1004.81px" y="112.5px" style="font-family:'Gilmer-Heavy', 'Gilmer';font-weight:800;font-size:71.978px;fill:#1d1f25;">HUB A<tspan x="1227.53px 1282.79px 1338.04px " y="112.5px 112.5px 112.5px ">CCO</tspan>UNT</text></g><g id="Group_3"><path id="Vector_10" d="M697.329,97.699c-0,3.171 0.34,5.737 0.932,7.631c0.691,1.883 1.546,3.942 2.741,6.166c0.417,0.683 0.593,1.377 0.593,1.972c-0,0.859 -0.516,1.717 -1.623,2.576l-5.374,3.601c-0.768,0.518 -1.536,0.771 -2.227,0.771c-0.844,0 -1.699,-0.429 -2.555,-1.2c-1.195,-1.289 -2.215,-2.654 -3.071,-4.031c-0.855,-1.453 -1.71,-3.083 -2.643,-5.054c-6.657,7.885 -15.024,11.827 -25.103,11.827c-7.161,-0 -12.886,-2.059 -17.065,-6.178c-4.178,-4.107 -6.317,-9.602 -6.317,-16.463c0,-7.279 2.567,-13.203 7.765,-17.663c5.209,-4.449 12.119,-6.684 20.914,-6.684c2.906,0 5.889,0.253 9.048,0.683c3.158,0.429 6.404,1.123 9.815,1.894l0,-6.266c0,-6.508 -1.371,-11.056 -4.014,-13.721c-2.73,-2.654 -7.337,-3.942 -13.906,-3.942c-2.994,-0 -6.065,0.341 -9.223,1.123c-3.158,0.771 -6.229,1.707 -9.212,2.907c-1.371,0.606 -2.391,0.947 -2.994,1.112c-0.592,0.177 -1.02,0.265 -1.36,0.265c-1.196,-0 -1.799,-0.859 -1.799,-2.665l0,-4.196c0,-1.376 0.176,-2.4 0.603,-3.006c0.428,-0.595 1.196,-1.2 2.391,-1.795c2.983,-1.542 6.569,-2.83 10.748,-3.854c4.189,-1.123 8.62,-1.63 13.314,-1.63c10.155,0 17.591,2.313 22.361,6.938c4.694,4.636 7.085,11.661 7.085,21.099l0,27.783l0.176,-0Zm-34.656,13.027c2.818,-0 5.725,-0.518 8.795,-1.542c3.071,-1.035 5.802,-2.918 8.105,-5.484c1.371,-1.63 2.391,-3.436 2.906,-5.495c0.505,-2.059 0.856,-4.537 0.856,-7.455l-0,-3.601c-2.479,-0.605 -5.122,-1.112 -7.853,-1.464c-2.741,-0.342 -5.384,-0.507 -8.027,-0.507c-5.714,0 -9.904,1.112 -12.722,3.425c-2.808,2.312 -4.179,5.572 -4.179,9.866c0,4.031 1.02,7.026 3.159,9.085c2.051,2.148 5.034,3.172 8.96,3.172Zm68.543,9.261c-1.546,-0 -2.566,-0.254 -3.246,-0.859c-0.68,-0.518 -1.283,-1.718 -1.798,-3.348l-20.059,-66.27c-0.504,-1.717 -0.768,-2.83 -0.768,-3.435c0,-1.366 0.691,-2.148 2.051,-2.148l8.368,0c1.623,0 2.731,0.265 3.323,0.859c0.691,0.518 1.195,1.718 1.711,3.348l14.345,56.766l13.313,-56.766c0.428,-1.718 0.933,-2.83 1.624,-3.348c0.68,-0.506 1.875,-0.859 3.41,-0.859l6.822,0c1.623,0 2.731,0.265 3.421,0.859c0.68,0.518 1.273,1.718 1.624,3.348l13.478,57.449l14.772,-57.449c0.505,-1.718 1.108,-2.83 1.7,-3.348c0.691,-0.506 1.799,-0.859 3.334,-0.859l7.94,0c1.36,0 2.128,0.694 2.128,2.148c-0,0.429 -0.088,0.859 -0.165,1.376c-0.087,0.507 -0.263,1.201 -0.603,2.137l-20.563,66.28c-0.515,1.718 -1.118,2.83 -1.798,3.348c-0.68,0.517 -1.788,0.859 -3.247,0.859l-7.336,-0c-1.624,-0 -2.731,-0.265 -3.411,-0.859c-0.691,-0.606 -1.283,-1.718 -1.623,-3.436l-13.226,-55.302l-13.15,55.225c-0.428,1.707 -0.943,2.83 -1.623,3.425c-0.68,0.605 -1.875,0.859 -3.411,0.859l-7.337,-0Zm109.67,2.312c-4.431,0 -8.872,-0.506 -13.138,-1.541c-4.267,-1.025 -7.601,-2.148 -9.816,-3.425c-1.371,-0.771 -2.303,-1.63 -2.654,-2.401c-0.34,-0.771 -0.504,-1.63 -0.504,-2.4l-0,-4.383c-0,-1.795 0.68,-2.654 1.963,-2.654c0.504,0 1.02,0.088 1.535,0.253c0.516,0.176 1.283,0.518 2.128,0.859c2.906,1.289 6.064,2.324 9.387,3.006c3.422,0.683 6.745,1.025 10.167,1.025c5.374,-0 9.552,-0.936 12.458,-2.83c2.896,-1.884 4.442,-4.625 4.442,-8.138c-0,-2.401 -0.768,-4.372 -2.314,-6.002c-1.536,-1.63 -4.431,-3.094 -8.62,-4.46l-12.371,-3.865c-6.229,-1.971 -10.835,-4.889 -13.654,-8.743c-2.818,-3.777 -4.266,-7.973 -4.266,-12.433c0,-3.601 0.768,-6.772 2.303,-9.514c1.536,-2.742 3.586,-5.143 6.142,-7.037c2.566,-1.971 5.461,-3.424 8.872,-4.459c3.422,-1.024 7.008,-1.454 10.758,-1.454c1.876,0 3.839,0.088 5.714,0.341c1.963,0.265 3.762,0.606 5.55,0.947c1.71,0.43 3.334,0.859 4.869,1.366c1.535,0.517 2.731,1.035 3.586,1.553c1.195,0.682 2.051,1.365 2.555,2.136c0.516,0.683 0.768,1.63 0.768,2.83l0,4.03c0,1.806 -0.68,2.742 -1.963,2.742c-0.68,0 -1.788,-0.341 -3.235,-1.024c-4.87,-2.235 -10.331,-3.347 -16.396,-3.347c-4.858,-0 -8.697,0.77 -11.351,2.4c-2.643,1.63 -4.014,4.119 -4.014,7.631c0,2.401 0.856,4.46 2.567,6.09c1.711,1.63 4.869,3.26 9.387,4.713l12.119,3.865c6.152,1.971 10.583,4.713 13.226,8.226c2.654,3.513 3.926,7.543 3.926,12.003c0,3.689 -0.767,7.037 -2.215,9.944c-1.535,2.918 -3.586,5.495 -6.229,7.554c-2.643,2.136 -5.802,3.689 -9.476,4.801c-3.838,1.201 -7.852,1.795 -12.206,1.795Z" style="fill:#252f3e;fill-rule:nonzero;"/><g id="Group_4"><path id="Vector_11" d="M857.018,163.968c-28.086,20.846 -68.883,31.902 -103.966,31.902c-49.154,-0 -93.461,-18.269 -126.91,-48.618c-2.654,-2.4 -0.263,-5.66 2.895,-3.777c36.191,21.099 80.827,33.873 127.009,33.873c31.146,-0 65.374,-6.519 96.871,-19.888c4.694,-2.147 8.707,3.084 4.101,6.508Z" style="fill:#f90;"/><path id="Vector_12" d="M868.709,150.6c-3.586,-4.636 -23.732,-2.236 -32.857,-1.112c-2.742,0.341 -3.158,-2.06 -0.691,-3.866c16.045,-11.32 42.42,-8.06 45.491,-4.283c3.082,3.854 -0.844,30.349 -15.869,43.045c-2.303,1.971 -4.529,0.936 -3.498,-1.629c3.41,-8.491 11.01,-27.618 7.424,-32.155Z" style="fill:#f90;"/></g></g></g><g id="Group-2"><path id="Rectangle1" serif:id="Rectangle" d="M2161.53,605.848c0,-14.188 -11.518,-25.707 -25.706,-25.707l-1350.8,0c-14.188,0 -25.707,11.519 -25.707,25.707l-0,684.16c-0,14.188 11.519,25.707 25.707,25.707l1350.8,0c14.188,0 25.706,-11.519 25.706,-25.707l0,-684.16Z" style="fill:#fff;stroke:#343536;stroke-width:10.28px;"/><g id="CIDR"><text x="992.984px" y="703.672px" style="font-family:'Gilmer-Heavy', 'Gilmer';font-weight:800;font-size:71.978px;fill:#1d1f25;">C<tspan x="1048.24px " y="703.672px ">I</tspan>DR</text></g><g id="_172.25.16.0-20" serif:id="172.25.16.0/20"><text x="835.08px" y="1068.27px" style="font-family:'Gilmer-Heavy', 'Gilmer';font-weight:800;font-size:71.978px;fill:#1d1f25;">172<tspan x="950.027px 970.804px 1013.46px 1055.83px 1069.41px 1101.49px 1143.64px 1161.54px 1205.78px 1244.55px 1286.13px " y="1068.27px 1068.27px 1068.27px 1068.27px 1068.27px 1068.27px 1068.27px 1068.27px 1068.27px 1068.27px 1068.27px ">.25.16.0/20</tspan></text></g><g id="tgw-attachment-1"><text x="1442.65px" y="876.373px" style="font-family:'Gilmer-Heavy', 'Gilmer';font-weight:800;font-size:71.978px;fill:#1d1f25;">t<tspan x="1470.99px 1516.31px " y="876.373px 876.373px ">gw</tspan>-att<tspan x="1715.28px 1761.68px 1803.11px " y="876.373px 876.373px 876.373px ">ach</tspan>ment<tspan x="2032.31px 2064.68px " y="876.373px 876.373px ">-1</tspan></text></g><g id="_10.0.1.0-24" serif:id="10.0.1.0/24"><text x="896.8px" y="885.946px" style="font-family:'Gilmer-Heavy', 'Gilmer';font-weight:800;font-size:71.978px;fill:#1d1f25;">10<tspan x="974.559px 992.457px 1038.14px 1051.72px 1083.8px 1101.69px 1145.93px 1184.71px 1225.92px " y="885.946px 885.946px 885.946px 885.946px 885.946px 885.946px 885.946px 885.946px 885.946px ">.0.1.0/24</tspan></text></g><g id="tgw-attachment-2"><text x="1437px" y="1058.69px" style="font-family:'Gilmer-Heavy', 'Gilmer';font-weight:800;font-size:71.978px;fill:#1d1f25;">t<tspan x="1465.34px 1510.66px " y="1058.69px 1058.69px ">gw</tspan>-att<tspan x="1709.63px 1756.03px 1797.46px " y="1058.69px 1058.69px 1058.69px ">ach</tspan>ment<tspan x="2026.66px 2059.75px " y="1058.69px 1058.69px ">-2</tspan></text></g><g id="_172.26.16.0-20" serif:id="172.26.16.0/20"><text x="835.728px" y="1246.37px" style="font-family:'Gilmer-Heavy', 'Gilmer';font-weight:800;font-size:71.978px;fill:#1d1f25;">172<tspan x="950.675px 971.451px 1013.03px 1055.18px 1068.76px 1100.84px 1143px 1160.89px 1205.13px 1243.91px 1285.49px " y="1246.37px 1246.37px 1246.37px 1246.37px 1246.37px 1246.37px 1246.37px 1246.37px 1246.37px 1246.37px 1246.37px ">.26.16.0/20</tspan></text></g><g id="tgw-attachment-3"><text x="1436.43px" y="1236.8px" style="font-family:'Gilmer-Heavy', 'Gilmer';font-weight:800;font-size:71.978px;fill:#1d1f25;">t<tspan x="1464.76px 1510.08px " y="1236.8px 1236.8px ">gw</tspan>-att<tspan x="1709.05px 1755.45px 1796.89px " y="1236.8px 1236.8px 1236.8px ">ach</tspan>ment<tspan x="2026.09px 2059.17px " y="1236.8px 1236.8px ">-3</tspan></text></g><g id="Attachment"><text x="1555.66px" y="703.672px" style="font-family:'Gilmer-Heavy', 'Gilmer';font-weight:800;font-size:71.978px;fill:#1d1f25;">A<tspan x="1607.17px 1636.94px 1665.28px 1711.68px 1753.11px " y="703.672px 703.672px 703.672px 703.672px 703.672px ">ttach</tspan>ment</text></g><path id="Line-4" d="M1376.95,589.759l0.136,730.585" style="fill:none;stroke:#343536;stroke-width:10.28px;stroke-linecap:square;"/><path id="Line-41" serif:id="Line-4" d="M764.701,763.536l1395.6,-0" style="fill:none;stroke:#343536;stroke-width:10.28px;stroke-linecap:square;"/><path id="Line-42" serif:id="Line-4" d="M764.701,954.144l1395.6,-0" style="fill:none;stroke:#343536;stroke-width:10.28px;stroke-linecap:square;"/><path id="Line-43" serif:id="Line-4" d="M760.535,1132.32l1395.6,0" style="fill:none;stroke:#343536;stroke-width:10.28px;stroke-linecap:square;"/></g><g id="Icon-Resource-Networking-and-Content-Delivery-Res_Elastic-Load-Balancing_Gateway-Load-Balancer_48" serif:id="Icon-Resource/Networking-and-Content-Delivery/Res_Elastic-Load-Balancing_Gateway-Load-Balancer_48"><path id="Gateway-Load-Balancer_Resource-Icon_light-bg" d="M760.182,444.443l7.365,7.364l-13.401,13.401c-0.979,0.974 -2.302,1.526 -3.682,1.526c-1.386,0 -2.709,-0.552 -3.683,-1.526l-13.401,-13.401l7.37,-7.364l4.042,4.041l-0,-64.526l-4.48,4.48l-7.364,-7.365l13.401,-13.401c0.974,-0.974 2.297,-1.526 3.682,-1.526c1.38,-0 2.703,0.552 3.683,1.526l13.395,13.401l-7.364,7.365l-4.537,-4.542l0,65.521l4.974,-4.974Zm-21.276,-24.104l-13.401,13.401l-7.364,-7.365l4.5,-4.5l-28.058,-0l0,-10.417l28.073,0l-4.515,-4.515l7.364,-7.365l13.401,13.396c0.979,0.979 1.526,2.302 1.526,3.682c0,1.38 -0.547,2.709 -1.526,3.683Zm41.938,6.036l-7.365,7.365l-13.406,-13.401c-0.974,-0.974 -1.521,-2.303 -1.521,-3.683c0,-1.38 0.547,-2.703 1.521,-3.682l13.406,-13.396l7.365,7.365l-4.516,4.515l27.63,0l0,10.417l-27.614,-0l4.5,4.5Zm10.823,94.458c-57.438,0 -104.167,-46.729 -104.167,-104.166c0,-57.438 46.729,-104.167 104.167,-104.167c57.437,-0 104.166,46.729 104.166,104.167c0,57.437 -46.729,104.166 -104.166,104.166Zm-0,-218.75c-63.183,0 -114.584,51.401 -114.584,114.584c0,63.182 51.401,114.583 114.584,114.583c63.182,-0 114.583,-51.401 114.583,-114.583c0,-63.183 -51.401,-114.584 -114.583,-114.584Zm57.291,168.542l10.417,-0l-0,-10.417l-10.417,0l0,10.417Zm15.625,-20.833l-20.833,-0c-2.88,-0 -5.208,2.333 -5.208,5.208l-0,5.208l-52.084,0l0,-15.625l-10.416,0l-0,20.834c-0,2.875 2.328,5.208 5.208,5.208l57.292,-0l-0,5.208c-0,2.875 2.328,5.209 5.208,5.209l20.833,-0c2.881,-0 5.209,-2.334 5.209,-5.209l-0,-20.833c-0,-2.875 -2.328,-5.208 -5.209,-5.208Zm-15.625,-27.917l10.417,-0l-0,-10.417l-10.417,0l0,10.417Zm15.625,-20.833l-20.833,-0c-2.88,-0 -5.208,2.328 -5.208,5.208l-0,5.208l-20.834,0l0,10.417l20.834,-0l-0,5.208c-0,2.875 2.328,5.209 5.208,5.209l20.833,-0c2.881,-0 5.209,-2.334 5.209,-5.209l-0,-20.833c-0,-2.88 -2.328,-5.208 -5.209,-5.208Zm-15.625,-29.375l10.417,-0l-0,-10.417l-10.417,-0l0,10.417Zm15.625,-20.834l-20.833,0c-2.88,0 -5.208,2.334 -5.208,5.209l-0,5.208l-57.292,-0c-2.88,-0 -5.208,2.333 -5.208,5.208l-0,20.834l10.416,-0l0,-15.625l52.084,-0l-0,5.208c-0,2.875 2.328,5.208 5.208,5.208l20.833,0c2.881,0 5.209,-2.333 5.209,-5.208l-0,-20.833c-0,-2.875 -2.328,-5.209 -5.209,-5.209Z" style="fill:#4d27aa;"/></g><path id="Path-3" d="M1625,83.333l750.208,1.873c45.942,0.115 83.125,37.391 83.125,83.333l0,1331.46c0,46.024 -37.309,83.333 -83.333,83.333l-1833.33,0c-46.024,0 -83.334,-37.309 -83.334,-83.333l0,-1331.25c0,-46.024 37.31,-83.333 83.334,-83.333l41.666,-0" style="fill:none;stroke:#343536;stroke-width:12.5px;"/><path id="Path-15" d="M368.75,1010.42l79.167,39.583l-79.167,39.583l0,-33.333l-113.721,0c-42.057,0 -76.256,33.683 -77.069,75.56l-0.015,1.399l-0.862,533.468l-12.5,-0.02l0.862,-533.468c0.079,-48.925 39.367,-88.638 88.104,-89.427l1.48,-0.012l113.721,0l0,-33.333Z" style="fill:#4d27aa;fill-rule:nonzero;"/></g></svg>