<?xml version="1.0" encoding="UTF-8" standalone="no"?>
<!DOCTYPE svg PUBLIC "-//W3C//DTD SVG 1.1//EN" "http://www.w3.org/Graphics/SVG/1.1/DTD/svg11.dtd"><svg width="100%"
    height="100%" viewBox="0 0 10 10" version="1.1" xmlns="http://www.w3.org/2000/svg"
    xmlns:xlink="http://www.w3.org/1999/xlink" xml:space="preserve" xmlns:serif="http://www.serif.com/"
    style="fill-rule:evenodd;clip-rule:evenodd;stroke-linejoin:round;stroke-miterlimit:2;">
    <path
        d="M5,0.5c-2.486,-0 -4.5,2.014 -4.5,4.5c-0,2.486 2.014,4.5 4.5,4.5c2.486,0 4.5,-2.014 4.5,-4.5c0,-2.486 -2.014,-4.5 -4.5,-4.5Zm0.982,4.838l0.499,0.498c0.023,0.019 0.038,0.042 0.06,0.057c0.011,0.007 0.026,0.011 0.034,0.022c0.007,0.011 0.011,0.026 0.015,0.041c0.011,0.06 0.022,0.117 0.034,0.173c0.018,0.109 0.03,0.21 0.041,0.292c0.011,0.079 0.015,0.15 0.019,0.195c0.003,0.045 0.003,0.072 0.003,0.072c0,-0 -0.026,-0 -0.071,-0.004c-0.045,-0.004 -0.116,-0.008 -0.195,-0.019c-0.082,-0.011 -0.18,-0.022 -0.292,-0.041c-0.057,-0.008 -0.113,-0.023 -0.173,-0.034c-0.015,-0.004 -0.03,-0.007 -0.041,-0.015c-0.011,-0.007 -0.015,-0.022 -0.023,-0.034c-0.015,-0.022 -0.037,-0.041 -0.056,-0.06l-0.499,-0.498c-0.187,-0.188 -0.491,-0.188 -0.678,-0c-0.184,0.183 -0.353,0.352 -0.499,0.498c-0.019,0.023 -0.041,0.038 -0.056,0.06c-0.008,0.012 -0.012,0.027 -0.023,0.034c-0.011,0.008 -0.026,0.011 -0.041,0.015c-0.06,0.011 -0.116,0.023 -0.173,0.034c-0.108,0.019 -0.21,0.03 -0.292,0.041c-0.079,0.011 -0.15,0.015 -0.195,0.019c-0.041,0.004 -0.068,0.004 -0.068,0.004c0,-0 0,-0.027 0.004,-0.072c0.004,-0.045 0.008,-0.116 0.019,-0.195c0.011,-0.082 0.022,-0.18 0.041,-0.292c0.008,-0.056 0.023,-0.113 0.034,-0.173c0.004,-0.015 0.007,-0.03 0.015,-0.041c0.007,-0.011 0.022,-0.015 0.034,-0.022c0.022,-0.015 0.041,-0.038 0.06,-0.057l0.498,-0.498c0.188,-0.188 0.188,-0.492 0,-0.679l-0.498,-0.499c-0.019,-0.019 -0.038,-0.041 -0.06,-0.052c-0.027,-0.012 -0.045,-0.03 -0.049,-0.06c-0.011,-0.06 -0.023,-0.117 -0.034,-0.173c-0.019,-0.109 -0.034,-0.206 -0.041,-0.292c-0.011,-0.083 -0.011,-0.154 -0.015,-0.199c-0.008,-0.045 -0.008,-0.071 -0.008,-0.071c0,-0 0.027,-0 0.072,0.003c0.045,0.004 0.116,0.008 0.198,0.015c0.083,0.008 0.18,0.023 0.293,0.042c0.052,0.011 0.112,0.022 0.172,0.033c0.03,0.004 0.049,0.027 0.06,0.049c0.012,0.026 0.034,0.041 0.053,0.06l0.499,0.499c0.187,0.187 0.491,0.187 0.678,-0l0.499,-0.499c0.019,-0.019 0.041,-0.037 0.053,-0.06c0.011,-0.026 0.03,-0.045 0.06,-0.049c0.06,-0.011 0.116,-0.022 0.172,-0.033c0.109,-0.019 0.206,-0.034 0.293,-0.042c0.082,-0.011 0.153,-0.011 0.198,-0.015c0.049,-0.003 0.075,-0.003 0.075,-0.003c0,-0 0,0.026 -0.003,0.071c-0.004,0.045 -0.008,0.116 -0.015,0.199c-0.008,0.082 -0.023,0.18 -0.042,0.292c-0.011,0.053 -0.022,0.113 -0.033,0.173c-0.004,0.03 -0.027,0.048 -0.049,0.06c-0.026,0.011 -0.041,0.033 -0.06,0.052l-0.499,0.499c-0.191,0.187 -0.191,0.495 -0.004,0.679l0,-0Z"
        style="fill:#FBFAF5;fill-rule:nonzero;" />
</svg>