<?xml version="1.0" encoding="UTF-8"?>
<svg width="288px" height="273px" viewBox="0 0 288 273" version="1.1" xmlns="http://www.w3.org/2000/svg" xmlns:xlink="http://www.w3.org/1999/xlink">
    <title>vault_splash_left_top</title>
    <g id="Page-1" stroke="none" stroke-width="1" fill="none" fill-rule="evenodd">
        <g id="vault_splash_left_top" transform="translate(0.000000, 1.000000)">
            <g id="background">
                <rect x="0" y="0" width="288" height="272"></rect>
            </g>
            <g id="dots_all" transform="translate(3.000000, 7.000000)" fill="#000000">
                <circle id="Oval" cx="5" cy="1" r="1"></circle>
                <circle id="Oval" cx="13" cy="1" r="1"></circle>
                <circle id="Oval" cx="21" cy="1" r="1"></circle>
                <circle id="Oval" cx="29" cy="1" r="1"></circle>
                <circle id="Oval" cx="37" cy="1" r="1"></circle>
                <circle id="Oval" cx="45" cy="1" r="1"></circle>
                <circle id="Oval" cx="53" cy="1" r="1"></circle>
                <circle id="Oval" cx="61" cy="1" r="1"></circle>
                <circle id="Oval" cx="1" cy="9" r="1"></circle>
                <circle id="Oval" cx="9" cy="9" r="1"></circle>
                <circle id="Oval" cx="17" cy="9" r="1"></circle>
                <circle id="Oval" cx="25" cy="9" r="1"></circle>
                <circle id="Oval" cx="33" cy="9" r="1"></circle>
                <circle id="Oval" cx="41" cy="9" r="1"></circle>
                <circle id="Oval" cx="49" cy="9" r="1"></circle>
                <circle id="Oval" cx="57" cy="9" r="1"></circle>
                <circle id="Oval" cx="5" cy="17" r="1"></circle>
                <circle id="Oval" cx="13" cy="17" r="1"></circle>
                <circle id="Oval" cx="21" cy="17" r="1"></circle>
                <circle id="Oval" cx="29" cy="17" r="1"></circle>
                <circle id="Oval" cx="37" cy="17" r="1"></circle>
                <circle id="Oval" cx="45" cy="17" r="1"></circle>
                <circle id="Oval" cx="53" cy="17" r="1"></circle>
                <circle id="Oval" cx="61" cy="17" r="1"></circle>
                <circle id="Oval" cx="1" cy="25" r="1"></circle>
                <circle id="Oval" cx="9" cy="25" r="1"></circle>
                <circle id="Oval" cx="17" cy="25" r="1"></circle>
                <circle id="Oval" cx="25" cy="25" r="1"></circle>
                <circle id="Oval" cx="33" cy="25" r="1"></circle>
                <circle id="Oval" cx="41" cy="25" r="1"></circle>
                <circle id="Oval" cx="49" cy="25" r="1"></circle>
                <circle id="Oval" cx="57" cy="25" r="1"></circle>
                <circle id="Oval" cx="5" cy="33" r="1"></circle>
                <circle id="Oval" cx="13" cy="33" r="1"></circle>
                <circle id="Oval" cx="21" cy="33" r="1"></circle>
                <circle id="Oval" cx="29" cy="33" r="1"></circle>
                <circle id="Oval" cx="37" cy="33" r="1"></circle>
                <circle id="Oval" cx="45" cy="33" r="1"></circle>
                <circle id="Oval" cx="53" cy="33" r="1"></circle>
                <circle id="Oval" cx="61" cy="33" r="1"></circle>
                <circle id="Oval" cx="1" cy="41" r="1"></circle>
                <circle id="Oval" cx="9" cy="41" r="1"></circle>
                <circle id="Oval" cx="17" cy="41" r="1"></circle>
                <circle id="Oval" cx="25" cy="41" r="1"></circle>
                <circle id="Oval" cx="33" cy="41" r="1"></circle>
                <circle id="Oval" cx="41" cy="41" r="1"></circle>
                <circle id="Oval" cx="49" cy="41" r="1"></circle>
                <circle id="Oval" cx="57" cy="41" r="1"></circle>
                <circle id="Oval" cx="5" cy="49" r="1"></circle>
                <circle id="Oval" cx="13" cy="49" r="1"></circle>
                <circle id="Oval" cx="21" cy="49" r="1"></circle>
                <circle id="Oval" cx="29" cy="49" r="1"></circle>
                <circle id="Oval" cx="37" cy="49" r="1"></circle>
                <circle id="Oval" cx="45" cy="49" r="1"></circle>
                <circle id="Oval" cx="53" cy="49" r="1"></circle>
                <circle id="Oval" cx="1" cy="57" r="1"></circle>
                <circle id="Oval" cx="9" cy="57" r="1"></circle>
                <circle id="Oval" cx="17" cy="57" r="1"></circle>
                <circle id="Oval" cx="25" cy="57" r="1"></circle>
                <circle id="Oval" cx="33" cy="57" r="1"></circle>
                <circle id="Oval" cx="41" cy="57" r="1"></circle>
                <circle id="Oval" cx="49" cy="57" r="1"></circle>
                <circle id="Oval" cx="69" cy="1" r="1"></circle>
                <circle id="Oval" cx="77" cy="1" r="1"></circle>
                <circle id="Oval" cx="65" cy="9" r="1"></circle>
                <circle id="Oval" cx="73" cy="9" r="1"></circle>
                <circle id="Oval" cx="69" cy="17" r="1"></circle>
                <circle id="Oval" cx="125" cy="17" r="1"></circle>
                <circle id="Oval" cx="65" cy="25" r="1"></circle>
                <circle id="Oval" cx="121" cy="25" r="1"></circle>
                <circle id="Oval" cx="117" cy="33" r="1"></circle>
                <circle id="Oval" cx="125" cy="33" r="1"></circle>
                <circle id="Oval" cx="113" cy="41" r="1"></circle>
                <circle id="Oval" cx="121" cy="41" r="1"></circle>
                <circle id="Oval" cx="109" cy="49" r="1"></circle>
                <circle id="Oval" cx="117" cy="49" r="1"></circle>
                <circle id="Oval" cx="125" cy="49" r="1"></circle>
                <circle id="Oval" cx="105" cy="57" r="1"></circle>
                <circle id="Oval" cx="113" cy="57" r="1"></circle>
                <circle id="Oval" cx="121" cy="57" r="1"></circle>
                <circle id="Oval" cx="5" cy="65" r="1"></circle>
                <circle id="Oval" cx="13" cy="65" r="1"></circle>
                <circle id="Oval" cx="21" cy="65" r="1"></circle>
                <circle id="Oval" cx="29" cy="65" r="1"></circle>
                <circle id="Oval" cx="37" cy="65" r="1"></circle>
                <circle id="Oval" cx="45" cy="65" r="1"></circle>
                <circle id="Oval" cx="9" cy="73" r="1"></circle>
                <circle id="Oval" cx="17" cy="73" r="1"></circle>
                <circle id="Oval" cx="25" cy="73" r="1"></circle>
                <circle id="Oval" cx="33" cy="73" r="1"></circle>
                <circle id="Oval" cx="41" cy="73" r="1"></circle>
                <circle id="Oval" cx="101" cy="65" r="1"></circle>
                <circle id="Oval" cx="109" cy="65" r="1"></circle>
                <circle id="Oval" cx="117" cy="65" r="1"></circle>
                <circle id="Oval" cx="125" cy="65" r="1"></circle>
                <circle id="Oval" cx="133" cy="1" r="1"></circle>
                <circle id="Oval" cx="141" cy="1" r="1"></circle>
                <circle id="Oval" cx="149" cy="1" r="1"></circle>
                <circle id="Oval" cx="157" cy="1" r="1"></circle>
                <circle id="Oval" cx="165" cy="1" r="1"></circle>
                <circle id="Oval" cx="173" cy="1" r="1"></circle>
                <circle id="Oval" cx="181" cy="1" r="1"></circle>
                <circle id="Oval" cx="189" cy="1" r="1"></circle>
                <circle id="Oval" cx="129" cy="9" r="1"></circle>
                <circle id="Oval" cx="137" cy="9" r="1"></circle>
                <circle id="Oval" cx="145" cy="9" r="1"></circle>
                <circle id="Oval" cx="153" cy="9" r="1"></circle>
                <circle id="Oval" cx="161" cy="9" r="1"></circle>
                <circle id="Oval" cx="169" cy="9" r="1"></circle>
                <circle id="Oval" cx="177" cy="9" r="1"></circle>
                <circle id="Oval" cx="185" cy="9" r="1"></circle>
                <circle id="Oval" cx="133" cy="17" r="1"></circle>
                <circle id="Oval" cx="141" cy="17" r="1"></circle>
                <circle id="Oval" cx="149" cy="17" r="1"></circle>
                <circle id="Oval" cx="157" cy="17" r="1"></circle>
                <circle id="Oval" cx="165" cy="17" r="1"></circle>
                <circle id="Oval" cx="173" cy="17" r="1"></circle>
                <circle id="Oval" cx="181" cy="17" r="1"></circle>
                <circle id="Oval" cx="189" cy="17" r="1"></circle>
                <circle id="Oval" cx="129" cy="25" r="1"></circle>
                <circle id="Oval" cx="137" cy="25" r="1"></circle>
                <circle id="Oval" cx="145" cy="25" r="1"></circle>
                <circle id="Oval" cx="153" cy="25" r="1"></circle>
                <circle id="Oval" cx="161" cy="25" r="1"></circle>
                <circle id="Oval" cx="169" cy="25" r="1"></circle>
                <circle id="Oval" cx="177" cy="25" r="1"></circle>
                <circle id="Oval" cx="185" cy="25" r="1"></circle>
                <circle id="Oval" cx="133" cy="33" r="1"></circle>
                <circle id="Oval" cx="141" cy="33" r="1"></circle>
                <circle id="Oval" cx="149" cy="33" r="1"></circle>
                <circle id="Oval" cx="157" cy="33" r="1"></circle>
                <circle id="Oval" cx="165" cy="33" r="1"></circle>
                <circle id="Oval" cx="173" cy="33" r="1"></circle>
                <circle id="Oval" cx="181" cy="33" r="1"></circle>
                <circle id="Oval" cx="189" cy="33" r="1"></circle>
                <circle id="Oval" cx="129" cy="41" r="1"></circle>
                <circle id="Oval" cx="137" cy="41" r="1"></circle>
                <circle id="Oval" cx="145" cy="41" r="1"></circle>
                <circle id="Oval" cx="153" cy="41" r="1"></circle>
                <circle id="Oval" cx="161" cy="41" r="1"></circle>
                <circle id="Oval" cx="169" cy="41" r="1"></circle>
                <circle id="Oval" cx="177" cy="41" r="1"></circle>
                <circle id="Oval" cx="185" cy="41" r="1"></circle>
                <circle id="Oval" cx="133" cy="49" r="1"></circle>
                <circle id="Oval" cx="141" cy="49" r="1"></circle>
                <circle id="Oval" cx="149" cy="49" r="1"></circle>
                <circle id="Oval" cx="157" cy="49" r="1"></circle>
                <circle id="Oval" cx="165" cy="49" r="1"></circle>
                <circle id="Oval" cx="173" cy="49" r="1"></circle>
                <circle id="Oval" cx="181" cy="49" r="1"></circle>
                <circle id="Oval" cx="189" cy="49" r="1"></circle>
                <circle id="Oval" cx="129" cy="57" r="1"></circle>
                <circle id="Oval" cx="137" cy="57" r="1"></circle>
                <circle id="Oval" cx="145" cy="57" r="1"></circle>
                <circle id="Oval" cx="153" cy="57" r="1"></circle>
                <circle id="Oval" cx="161" cy="57" r="1"></circle>
                <circle id="Oval" cx="169" cy="57" r="1"></circle>
                <circle id="Oval" cx="177" cy="57" r="1"></circle>
                <circle id="Oval" cx="185" cy="57" r="1"></circle>
                <circle id="Oval" cx="197" cy="1" r="1"></circle>
                <circle id="Oval" cx="205" cy="1" r="1"></circle>
                <circle id="Oval" cx="213" cy="1" r="1"></circle>
                <circle id="Oval" cx="221" cy="1" r="1"></circle>
                <circle id="Oval" cx="229" cy="1" r="1"></circle>
                <circle id="Oval" cx="237" cy="1" r="1"></circle>
                <circle id="Oval" cx="245" cy="1" r="1"></circle>
                <circle id="Oval" cx="253" cy="1" r="1"></circle>
                <circle id="Oval" cx="193" cy="9" r="1"></circle>
                <circle id="Oval" cx="201" cy="9" r="1"></circle>
                <circle id="Oval" cx="209" cy="9" r="1"></circle>
                <circle id="Oval" cx="217" cy="9" r="1"></circle>
                <circle id="Oval" cx="225" cy="9" r="1"></circle>
                <circle id="Oval" cx="233" cy="9" r="1"></circle>
                <circle id="Oval" cx="241" cy="9" r="1"></circle>
                <circle id="Oval" cx="249" cy="9" r="1"></circle>
                <circle id="Oval" cx="197" cy="17" r="1"></circle>
                <circle id="Oval" cx="205" cy="17" r="1"></circle>
                <circle id="Oval" cx="213" cy="17" r="1"></circle>
                <circle id="Oval" cx="221" cy="17" r="1"></circle>
                <circle id="Oval" cx="229" cy="17" r="1"></circle>
                <circle id="Oval" cx="237" cy="17" r="1"></circle>
                <circle id="Oval" cx="245" cy="17" r="1"></circle>
                <circle id="Oval" cx="253" cy="17" r="1"></circle>
                <circle id="Oval" cx="193" cy="25" r="1"></circle>
                <circle id="Oval" cx="201" cy="25" r="1"></circle>
                <circle id="Oval" cx="209" cy="25" r="1"></circle>
                <circle id="Oval" cx="217" cy="25" r="1"></circle>
                <circle id="Oval" cx="225" cy="25" r="1"></circle>
                <circle id="Oval" cx="233" cy="25" r="1"></circle>
                <circle id="Oval" cx="241" cy="25" r="1"></circle>
                <circle id="Oval" cx="249" cy="25" r="1"></circle>
                <circle id="Oval" cx="197" cy="33" r="1"></circle>
                <circle id="Oval" cx="205" cy="33" r="1"></circle>
                <circle id="Oval" cx="213" cy="33" r="1"></circle>
                <circle id="Oval" cx="221" cy="33" r="1"></circle>
                <circle id="Oval" cx="229" cy="33" r="1"></circle>
                <circle id="Oval" cx="237" cy="33" r="1"></circle>
                <circle id="Oval" cx="245" cy="33" r="1"></circle>
                <circle id="Oval" cx="253" cy="33" r="1"></circle>
                <circle id="Oval" cx="193" cy="41" r="1"></circle>
                <circle id="Oval" cx="201" cy="41" r="1"></circle>
                <circle id="Oval" cx="209" cy="41" r="1"></circle>
                <circle id="Oval" cx="217" cy="41" r="1"></circle>
                <circle id="Oval" cx="225" cy="41" r="1"></circle>
                <circle id="Oval" cx="233" cy="41" r="1"></circle>
                <circle id="Oval" cx="241" cy="41" r="1"></circle>
                <circle id="Oval" cx="249" cy="41" r="1"></circle>
                <circle id="Oval" cx="197" cy="49" r="1"></circle>
                <circle id="Oval" cx="205" cy="49" r="1"></circle>
                <circle id="Oval" cx="213" cy="49" r="1"></circle>
                <circle id="Oval" cx="221" cy="49" r="1"></circle>
                <circle id="Oval" cx="229" cy="49" r="1"></circle>
                <circle id="Oval" cx="237" cy="49" r="1"></circle>
                <circle id="Oval" cx="245" cy="49" r="1"></circle>
                <circle id="Oval" cx="253" cy="49" r="1"></circle>
                <circle id="Oval" cx="193" cy="57" r="1"></circle>
                <circle id="Oval" cx="201" cy="57" r="1"></circle>
                <circle id="Oval" cx="209" cy="57" r="1"></circle>
                <circle id="Oval" cx="217" cy="57" r="1"></circle>
                <circle id="Oval" cx="225" cy="57" r="1"></circle>
                <circle id="Oval" cx="233" cy="57" r="1"></circle>
                <circle id="Oval" cx="241" cy="57" r="1"></circle>
                <circle id="Oval" cx="249" cy="57" r="1"></circle>
                <circle id="Oval" cx="133" cy="65" r="1"></circle>
                <circle id="Oval" cx="141" cy="65" r="1"></circle>
                <circle id="Oval" cx="149" cy="65" r="1"></circle>
                <circle id="Oval" cx="157" cy="65" r="1"></circle>
                <circle id="Oval" cx="165" cy="65" r="1"></circle>
                <circle id="Oval" cx="173" cy="65" r="1"></circle>
                <circle id="Oval" cx="181" cy="65" r="1"></circle>
                <circle id="Oval" cx="189" cy="65" r="1"></circle>
                <circle id="Oval" cx="13" cy="81" r="1"></circle>
                <circle id="Oval" cx="21" cy="81" r="1"></circle>
                <circle id="Oval" cx="29" cy="81" r="1"></circle>
                <circle id="Oval" cx="37" cy="81" r="1"></circle>
                <circle id="Oval" cx="45" cy="81" r="1"></circle>
                <circle id="Oval" cx="53" cy="81" r="1"></circle>
                <circle id="Oval" cx="61" cy="81" r="1"></circle>
                <circle id="Oval" cx="17" cy="89" r="1"></circle>
                <circle id="Oval" cx="25" cy="89" r="1"></circle>
                <circle id="Oval" cx="33" cy="89" r="1"></circle>
                <circle id="Oval" cx="41" cy="89" r="1"></circle>
                <circle id="Oval" cx="49" cy="89" r="1"></circle>
                <circle id="Oval" cx="57" cy="89" r="1"></circle>
                <circle id="Oval" cx="21" cy="97" r="1"></circle>
                <circle id="Oval" cx="29" cy="97" r="1"></circle>
                <circle id="Oval" cx="37" cy="97" r="1"></circle>
                <circle id="Oval" cx="45" cy="97" r="1"></circle>
                <circle id="Oval" cx="53" cy="97" r="1"></circle>
                <circle id="Oval" cx="61" cy="97" r="1"></circle>
                <circle id="Oval" cx="25" cy="105" r="1"></circle>
                <circle id="Oval" cx="33" cy="105" r="1"></circle>
                <circle id="Oval" cx="41" cy="105" r="1"></circle>
                <circle id="Oval" cx="49" cy="105" r="1"></circle>
                <circle id="Oval" cx="57" cy="105" r="1"></circle>
                <circle id="Oval" cx="29" cy="113" r="1"></circle>
                <circle id="Oval" cx="37" cy="113" r="1"></circle>
                <circle id="Oval" cx="45" cy="113" r="1"></circle>
                <circle id="Oval" cx="53" cy="113" r="1"></circle>
                <circle id="Oval" cx="61" cy="113" r="1"></circle>
                <circle id="Oval" cx="33" cy="121" r="1"></circle>
                <circle id="Oval" cx="41" cy="121" r="1"></circle>
                <circle id="Oval" cx="49" cy="121" r="1"></circle>
                <circle id="Oval" cx="57" cy="121" r="1"></circle>
                <circle id="Oval" cx="37" cy="129" r="1"></circle>
                <circle id="Oval" cx="45" cy="129" r="1"></circle>
                <circle id="Oval" cx="53" cy="129" r="1"></circle>
                <circle id="Oval" cx="61" cy="129" r="1"></circle>
                <circle id="Oval" cx="41" cy="137" r="1"></circle>
                <circle id="Oval" cx="49" cy="137" r="1"></circle>
                <circle id="Oval" cx="57" cy="137" r="1"></circle>
                <circle id="Oval" cx="69" cy="81" r="1"></circle>
                <circle id="Oval" cx="77" cy="81" r="1"></circle>
                <circle id="Oval" cx="85" cy="81" r="1"></circle>
                <circle id="Oval" cx="65" cy="89" r="1"></circle>
                <circle id="Oval" cx="73" cy="89" r="1"></circle>
                <circle id="Oval" cx="69" cy="97" r="1"></circle>
                <circle id="Oval" cx="77" cy="97" r="1"></circle>
                <circle id="Oval" cx="65" cy="105" r="1"></circle>
                <circle id="Oval" cx="73" cy="105" r="1"></circle>
                <circle id="Oval" cx="69" cy="113" r="1"></circle>
                <circle id="Oval" cx="125" cy="113" r="1"></circle>
                <circle id="Oval" cx="65" cy="121" r="1"></circle>
                <circle id="Oval" cx="121" cy="121" r="1"></circle>
                <circle id="Oval" cx="117" cy="129" r="1"></circle>
                <circle id="Oval" cx="125" cy="129" r="1"></circle>
                <circle id="Oval" cx="113" cy="137" r="1"></circle>
                <circle id="Oval" cx="121" cy="137" r="1"></circle>
                <circle id="Oval" cx="45" cy="145" r="1"></circle>
                <circle id="Oval" cx="53" cy="145" r="1"></circle>
                <circle id="Oval" cx="49" cy="153" r="1"></circle>
                <circle id="Oval" cx="109" cy="145" r="1"></circle>
                <circle id="Oval" cx="117" cy="145" r="1"></circle>
                <circle id="Oval" cx="125" cy="145" r="1"></circle>
                <circle id="Oval" cx="105" cy="153" r="1"></circle>
                <circle id="Oval" cx="113" cy="153" r="1"></circle>
                <circle id="Oval" cx="121" cy="153" r="1"></circle>
                <circle id="Oval" cx="137" cy="89" r="1"></circle>
                <circle id="Oval" cx="133" cy="97" r="1"></circle>
                <circle id="Oval" cx="129" cy="105" r="1"></circle>
                <circle id="Oval" cx="137" cy="105" r="1"></circle>
                <circle id="Oval" cx="133" cy="113" r="1"></circle>
                <circle id="Oval" cx="129" cy="121" r="1"></circle>
                <circle id="Oval" cx="137" cy="121" r="1"></circle>
                <circle id="Oval" cx="133" cy="129" r="1"></circle>
                <circle id="Oval" cx="129" cy="137" r="1"></circle>
                <circle id="Oval" cx="137" cy="137" r="1"></circle>
                <circle id="Oval" cx="133" cy="145" r="1"></circle>
                <circle id="Oval" cx="129" cy="153" r="1"></circle>
                <circle id="Oval" cx="137" cy="153" r="1"></circle>
                <circle id="Oval" cx="1" cy="169" r="1"></circle>
                <circle id="Oval" cx="5" cy="177" r="1"></circle>
                <circle id="Oval" cx="1" cy="185" r="1"></circle>
                <circle id="Oval" cx="9" cy="185" r="1"></circle>
                <circle id="Oval" cx="5" cy="193" r="1"></circle>
                <circle id="Oval" cx="13" cy="193" r="1"></circle>
                <circle id="Oval" cx="1" cy="201" r="1"></circle>
                <circle id="Oval" cx="9" cy="201" r="1"></circle>
                <circle id="Oval" cx="17" cy="201" r="1"></circle>
                <circle id="Oval" cx="5" cy="209" r="1"></circle>
                <circle id="Oval" cx="13" cy="209" r="1"></circle>
                <circle id="Oval" cx="21" cy="209" r="1"></circle>
                <circle id="Oval" cx="1" cy="217" r="1"></circle>
                <circle id="Oval" cx="9" cy="217" r="1"></circle>
                <circle id="Oval" cx="17" cy="217" r="1"></circle>
                <circle id="Oval" cx="25" cy="217" r="1"></circle>
                <circle id="Oval" cx="101" cy="161" r="1"></circle>
                <circle id="Oval" cx="109" cy="161" r="1"></circle>
                <circle id="Oval" cx="117" cy="161" r="1"></circle>
                <circle id="Oval" cx="125" cy="161" r="1"></circle>
                <circle id="Oval" cx="97" cy="169" r="1"></circle>
                <circle id="Oval" cx="105" cy="169" r="1"></circle>
                <circle id="Oval" cx="113" cy="169" r="1"></circle>
                <circle id="Oval" cx="121" cy="169" r="1"></circle>
                <circle id="Oval" cx="93" cy="177" r="1"></circle>
                <circle id="Oval" cx="101" cy="177" r="1"></circle>
                <circle id="Oval" cx="109" cy="177" r="1"></circle>
                <circle id="Oval" cx="117" cy="177" r="1"></circle>
                <circle id="Oval" cx="125" cy="177" r="1"></circle>
                <circle id="Oval" cx="89" cy="185" r="1"></circle>
                <circle id="Oval" cx="97" cy="185" r="1"></circle>
                <circle id="Oval" cx="105" cy="185" r="1"></circle>
                <circle id="Oval" cx="113" cy="185" r="1"></circle>
                <circle id="Oval" cx="121" cy="185" r="1"></circle>
                <circle id="Oval" cx="85" cy="193" r="1"></circle>
                <circle id="Oval" cx="93" cy="193" r="1"></circle>
                <circle id="Oval" cx="101" cy="193" r="1"></circle>
                <circle id="Oval" cx="109" cy="193" r="1"></circle>
                <circle id="Oval" cx="117" cy="193" r="1"></circle>
                <circle id="Oval" cx="81" cy="201" r="1"></circle>
                <circle id="Oval" cx="89" cy="201" r="1"></circle>
                <circle id="Oval" cx="97" cy="201" r="1"></circle>
                <circle id="Oval" cx="105" cy="201" r="1"></circle>
                <circle id="Oval" cx="113" cy="201" r="1"></circle>
                <circle id="Oval" cx="77" cy="209" r="1"></circle>
                <circle id="Oval" cx="85" cy="209" r="1"></circle>
                <circle id="Oval" cx="93" cy="209" r="1"></circle>
                <circle id="Oval" cx="101" cy="209" r="1"></circle>
                <circle id="Oval" cx="109" cy="209" r="1"></circle>
                <circle id="Oval" cx="73" cy="217" r="1"></circle>
                <circle id="Oval" cx="81" cy="217" r="1"></circle>
                <circle id="Oval" cx="89" cy="217" r="1"></circle>
                <circle id="Oval" cx="97" cy="217" r="1"></circle>
                <circle id="Oval" cx="105" cy="217" r="1"></circle>
                <circle id="Oval" cx="5" cy="225" r="1"></circle>
                <circle id="Oval" cx="13" cy="225" r="1"></circle>
                <circle id="Oval" cx="21" cy="225" r="1"></circle>
                <circle id="Oval" cx="29" cy="225" r="1"></circle>
                <circle id="Oval" cx="1" cy="233" r="1"></circle>
                <circle id="Oval" cx="9" cy="233" r="1"></circle>
                <circle id="Oval" cx="17" cy="233" r="1"></circle>
                <circle id="Oval" cx="25" cy="233" r="1"></circle>
                <circle id="Oval" cx="33" cy="233" r="1"></circle>
                <circle id="Oval" cx="69" cy="225" r="1"></circle>
                <circle id="Oval" cx="77" cy="225" r="1"></circle>
                <circle id="Oval" cx="85" cy="225" r="1"></circle>
                <circle id="Oval" cx="93" cy="225" r="1"></circle>
                <circle id="Oval" cx="101" cy="225" r="1"></circle>
                <circle id="Oval" cx="65" cy="233" r="1"></circle>
                <circle id="Oval" cx="73" cy="233" r="1"></circle>
                <circle id="Oval" cx="81" cy="233" r="1"></circle>
                <circle id="Oval" cx="89" cy="233" r="1"></circle>
                <circle id="Oval" cx="97" cy="233" r="1"></circle>
                <circle id="Oval" cx="133" cy="161" r="1"></circle>
                <circle id="Oval" cx="129" cy="169" r="1"></circle>
                <circle id="Oval" cx="5" cy="241" r="1"></circle>
                <circle id="Oval" cx="13" cy="241" r="1"></circle>
                <circle id="Oval" cx="21" cy="241" r="1"></circle>
                <circle id="Oval" cx="29" cy="241" r="1"></circle>
                <circle id="Oval" cx="37" cy="241" r="1"></circle>
                <circle id="Oval" cx="61" cy="241" r="1"></circle>
                <circle id="Oval" cx="69" cy="241" r="1"></circle>
                <circle id="Oval" cx="77" cy="241" r="1"></circle>
                <circle id="Oval" cx="85" cy="241" r="1"></circle>
                <circle id="Oval" cx="93" cy="241" r="1"></circle>
                <circle id="Oval" cx="5" cy="257" r="1"></circle>
                <circle id="Oval" cx="13" cy="257" r="1"></circle>
                <circle id="Oval" cx="21" cy="257" r="1"></circle>
                <circle id="Oval" cx="29" cy="257" r="1"></circle>
                <circle id="Oval" cx="37" cy="257" r="1"></circle>
                <circle id="Oval" cx="45" cy="257" r="1"></circle>
                <circle id="Oval" cx="53" cy="257" r="1"></circle>
                <circle id="Oval" cx="61" cy="257" r="1"></circle>
                <circle id="Oval" cx="69" cy="257" r="1"></circle>
                <circle id="Oval" cx="77" cy="257" r="1"></circle>
                <circle id="Oval" cx="85" cy="257" r="1"></circle>
                <circle id="Oval" cx="1" cy="249" r="1"></circle>
                <circle id="Oval" cx="9" cy="249" r="1"></circle>
                <circle id="Oval" cx="17" cy="249" r="1"></circle>
                <circle id="Oval" cx="25" cy="249" r="1"></circle>
                <circle id="Oval" cx="33" cy="249" r="1"></circle>
                <circle id="Oval" cx="41" cy="249" r="1"></circle>
                <circle id="Oval" cx="57" cy="249" r="1"></circle>
                <circle id="Oval" cx="65" cy="249" r="1"></circle>
                <circle id="Oval" cx="73" cy="249" r="1"></circle>
                <circle id="Oval" cx="81" cy="249" r="1"></circle>
                <circle id="Oval" cx="89" cy="249" r="1"></circle>
                <circle id="Oval" cx="145" cy="73" r="1"></circle>
                <circle id="Oval" cx="153" cy="73" r="1"></circle>
                <circle id="Oval" cx="161" cy="73" r="1"></circle>
                <circle id="Oval" cx="169" cy="73" r="1"></circle>
                <circle id="Oval" cx="177" cy="73" r="1"></circle>
                <circle id="Oval" cx="185" cy="73" r="1"></circle>
                <circle id="Oval" cx="197" cy="65" r="1"></circle>
                <circle id="Oval" cx="205" cy="65" r="1"></circle>
                <circle id="Oval" cx="213" cy="65" r="1"></circle>
                <circle id="Oval" cx="221" cy="65" r="1"></circle>
                <circle id="Oval" cx="229" cy="65" r="1"></circle>
                <circle id="Oval" cx="237" cy="65" r="1"></circle>
                <circle id="Oval" cx="245" cy="65" r="1"></circle>
                <circle id="Oval" cx="253" cy="65" r="1"></circle>
                <circle id="Oval" cx="193" cy="73" r="1"></circle>
                <circle id="Oval" cx="201" cy="73" r="1"></circle>
                <circle id="Oval" cx="209" cy="73" r="1"></circle>
                <circle id="Oval" cx="217" cy="73" r="1"></circle>
                <circle id="Oval" cx="225" cy="73" r="1"></circle>
                <circle id="Oval" cx="233" cy="73" r="1"></circle>
                <circle id="Oval" cx="241" cy="73" r="1"></circle>
                <circle id="Oval" cx="249" cy="73" r="1"></circle>
                <circle id="Oval" cx="261" cy="1" r="1"></circle>
                <circle id="Oval" cx="269" cy="1" r="1"></circle>
                <circle id="Oval" cx="277" cy="1" r="1"></circle>
                <circle id="Oval" cx="257" cy="9" r="1"></circle>
                <circle id="Oval" cx="265" cy="9" r="1"></circle>
                <circle id="Oval" cx="273" cy="9" r="1"></circle>
                <circle id="Oval" cx="261" cy="17" r="1"></circle>
                <circle id="Oval" cx="269" cy="17" r="1"></circle>
                <circle id="Oval" cx="277" cy="17" r="1"></circle>
                <circle id="Oval" cx="257" cy="25" r="1"></circle>
                <circle id="Oval" cx="265" cy="25" r="1"></circle>
                <circle id="Oval" cx="273" cy="25" r="1"></circle>
                <circle id="Oval" cx="261" cy="33" r="1"></circle>
                <circle id="Oval" cx="269" cy="33" r="1"></circle>
                <circle id="Oval" cx="277" cy="33" r="1"></circle>
                <circle id="Oval" cx="257" cy="41" r="1"></circle>
                <circle id="Oval" cx="265" cy="41" r="1"></circle>
                <circle id="Oval" cx="273" cy="41" r="1"></circle>
                <circle id="Oval" cx="261" cy="49" r="1"></circle>
                <circle id="Oval" cx="269" cy="49" r="1"></circle>
                <circle id="Oval" cx="277" cy="49" r="1"></circle>
                <circle id="Oval" cx="257" cy="57" r="1"></circle>
                <circle id="Oval" cx="265" cy="57" r="1"></circle>
                <circle id="Oval" cx="273" cy="57" r="1"></circle>
                <circle id="Oval" cx="261" cy="65" r="1"></circle>
                <circle id="Oval" cx="269" cy="65" r="1"></circle>
                <circle id="Oval" cx="277" cy="65" r="1"></circle>
                <circle id="Oval" cx="257" cy="73" r="1"></circle>
                <circle id="Oval" cx="265" cy="73" r="1"></circle>
                <circle id="Oval" cx="273" cy="73" r="1"></circle>
            </g>
            <g id="diagonal_lines_top" transform="translate(52.000000, 0.000000)" stroke="#4A4A4A" stroke-width="2">
                <g id="diagonal_line_6" transform="translate(40.000000, 0.000000)">
                    <line x1="0" y1="80" x2="40" y2="0" id="diagonal_line"></line>
                </g>
                <g id="diagonal_line_5" transform="translate(32.000000, 0.000000)">
                    <line x1="0" y1="80" x2="40" y2="0" id="diagonal_line"></line>
                </g>
                <g id="diagonal_line_4" transform="translate(24.000000, 0.000000)">
                    <line x1="0" y1="80" x2="40" y2="0" id="diagonal_line"></line>
                </g>
                <g id="diagonal_line_3" transform="translate(16.000000, 0.000000)">
                    <line x1="0" y1="80" x2="40" y2="0" id="diagonal_line"></line>
                </g>
                <g id="diagonal_line_2" transform="translate(8.000000, 0.000000)">
                    <line x1="0" y1="80" x2="40" y2="0" id="diagonal_line"></line>
                </g>
                <g id="diagonal_line_1" transform="translate(0.000000, 0.002432)">
                    <line x1="0" y1="79.997568" x2="39.998784" y2="0" id="diagonal_line"></line>
                </g>
            </g>
            <g id="diagonal_lines_middle" transform="translate(4.000000, 80.000000)" stroke="#4A4A4A" stroke-width="2">
                <polyline id="Path" points="136 0 48 177 0 81"></polyline>
                <polyline id="Path" points="128 0 48 161 0 65"></polyline>
                <polyline id="Path" points="120 0 48 145 0 49"></polyline>
                <polyline id="Path" points="112 0 48 128 0 32"></polyline>
                <polyline id="Path" points="104 0 48 113 0 17"></polyline>
                <polyline id="Path" points="96 -1.52655666e-16 48 96 0 0"></polyline>
            </g>
            <g id="diagonal_lines_bottom" transform="translate(96.000000, 176.000000)" stroke="#4A4A4A" stroke-width="2">
                <line x1="40" y1="88" x2="44" y2="80" id="Path-2"></line>
                <line x1="32" y1="88" x2="44" y2="64" id="Path-3"></line>
                <line x1="24" y1="88" x2="44" y2="48" id="Path-4"></line>
                <line x1="44" y1="32" x2="16" y2="88" id="Path-5"></line>
                <line x1="8" y1="88" x2="44" y2="16" id="Path-6"></line>
                <line x1="0" y1="88" x2="44" y2="0" id="Path-7"></line>
            </g>
        </g>
    </g>
</svg>